<svg width="60" height="60" viewBox="0 0 60 60" fill="none" xmlns="http://www.w3.org/2000/svg">
<circle cx="30" cy="29.9984" r="29.5" fill="white" stroke="#CCCCD6"/>
<path d="M20.3333 32.6651C19.4167 32.6651 18.6319 32.3387 17.9792 31.6859C17.3264 31.0331 17 30.2484 17 29.3317C17 28.4151 17.3264 27.6304 17.9792 26.9776C18.6319 26.3248 19.4167 25.9984 20.3333 25.9984C21.25 25.9984 22.0347 26.3248 22.6875 26.9776C23.3403 27.6304 23.6667 28.4151 23.6667 29.3317C23.6667 30.2484 23.3403 31.0331 22.6875 31.6859C22.0347 32.3387 21.25 32.6651 20.3333 32.6651ZM30.3333 32.6651C29.4167 32.6651 28.6319 32.3387 27.9792 31.6859C27.3264 31.0331 27 30.2484 27 29.3317C27 28.4151 27.3264 27.6304 27.9792 26.9776C28.6319 26.3248 29.4167 25.9984 30.3333 25.9984C31.25 25.9984 32.0347 26.3248 32.6875 26.9776C33.3403 27.6304 33.6667 28.4151 33.6667 29.3317C33.6667 30.2484 33.3403 31.0331 32.6875 31.6859C32.0347 32.3387 31.25 32.6651 30.3333 32.6651ZM40.3333 32.6651C39.4167 32.6651 38.6319 32.3387 37.9792 31.6859C37.3264 31.0331 37 30.2484 37 29.3317C37 28.4151 37.3264 27.6304 37.9792 26.9776C38.6319 26.3248 39.4167 25.9984 40.3333 25.9984C41.25 25.9984 42.0347 26.3248 42.6875 26.9776C43.3403 27.6304 43.6667 28.4151 43.6667 29.3317C43.6667 30.2484 43.3403 31.0331 42.6875 31.6859C42.0347 32.3387 41.25 32.6651 40.3333 32.6651Z" fill="#333333"/>
</svg>
