<svg width="60" height="60" viewBox="0 0 60 60" fill="none" xmlns="http://www.w3.org/2000/svg">
<circle cx="30" cy="30" r="29.5" fill="white" stroke="#CCCCD6"/>
<path d="M15 45.1432L17.1188 37.4027C15.8114 35.1369 15.1243 32.5684 15.1256 29.9347C15.1294 21.7006 21.8299 15 30.0628 15C34.058 15.0013 37.8083 16.5574 40.6292 19.3808C43.4489 22.2042 45.0013 25.957 45 29.9485C44.9962 38.1839 38.2957 44.8845 30.0628 44.8845C27.5634 44.8832 25.1005 44.2565 22.9189 43.0658L15 45.1432ZM23.2856 40.3617C25.3906 41.6114 27.4001 42.36 30.0578 42.3612C36.9003 42.3612 42.4743 36.7923 42.478 29.946C42.4805 23.0859 36.9329 17.5245 30.0678 17.522C23.2203 17.522 17.6501 23.0909 17.6476 29.9359C17.6463 32.7305 18.4652 34.8229 19.8405 37.0121L18.5858 41.5938L23.2856 40.3617ZM37.5873 33.4991C37.4943 33.3434 37.2457 33.2504 36.8714 33.0633C36.4984 32.8762 34.6634 31.9731 34.3205 31.8488C33.9789 31.7244 33.7302 31.6616 33.4803 32.0359C33.2316 32.4089 32.5157 33.2504 32.2984 33.4991C32.0811 33.7478 31.8626 33.7792 31.4896 33.5921C31.1166 33.4049 29.9133 33.0118 28.4878 31.7395C27.3788 30.7498 26.629 29.5278 26.4117 29.1535C26.1944 28.7805 26.3891 28.5782 26.575 28.3924C26.7433 28.2253 26.948 27.9565 27.1351 27.738C27.3248 27.522 27.3863 27.3662 27.5119 27.1163C27.6363 26.8676 27.5747 26.6491 27.4805 26.4619C27.3863 26.2761 26.6403 24.4386 26.3301 23.6913C26.0261 22.9641 25.7184 23.062 25.4898 23.0507L24.7739 23.0382C24.5252 23.0382 24.1208 23.1311 23.7792 23.5054C23.4376 23.8797 22.473 24.7815 22.473 26.6189C22.473 28.4564 23.8106 30.2311 23.9965 30.4798C24.1836 30.7285 26.6277 34.4989 30.3718 36.1153C31.2622 36.4996 31.958 36.7295 32.4994 36.9015C33.3936 37.1854 34.2075 37.1452 34.8505 37.0497C35.5677 36.943 37.0585 36.1467 37.37 35.2751C37.6815 34.4022 37.6815 33.6549 37.5873 33.4991Z" fill="black"/>
</svg>
