<svg width="70" height="60" viewBox="0 0 70 60" fill="none" xmlns="http://www.w3.org/2000/svg">
<circle cx="40" cy="30" r="29.5" fill="white" stroke="#CCCCD6"/>
<path d="M40 33.1429C38.8095 33.1429 37.7976 32.7262 36.9643 31.8929C36.131 31.0595 35.7143 30.0476 35.7143 28.8571V20.2857C35.7143 19.0952 36.131 18.0833 36.9643 17.25C37.7976 16.4167 38.8095 16 40 16C41.1905 16 42.2024 16.4167 43.0357 17.25C43.869 18.0833 44.2857 19.0952 44.2857 20.2857V28.8571C44.2857 30.0476 43.869 31.0595 43.0357 31.8929C42.2024 32.7262 41.1905 33.1429 40 33.1429ZM38.5714 43.1428V38.75C36.0952 38.4167 34.0476 37.3095 32.4286 35.4286C30.8095 33.5476 30 31.3571 30 28.8571H32.8571C32.8571 30.8333 33.5536 32.5179 34.9464 33.9107C36.3393 35.3036 38.0238 36 40 36C41.9762 36 43.6607 35.3036 45.0536 33.9107C46.4464 32.5179 47.1429 30.8333 47.1429 28.8571H50C50 31.3571 49.1905 33.5476 47.5714 35.4286C45.9524 37.3095 43.9048 38.4167 41.4286 38.75V43.1428H38.5714ZM40 30.2857C40.4048 30.2857 40.744 30.1488 41.0179 29.875C41.2917 29.6012 41.4286 29.2619 41.4286 28.8571V20.2857C41.4286 19.881 41.2917 19.5417 41.0179 19.2679C40.744 18.994 40.4048 18.8571 40 18.8571C39.5952 18.8571 39.256 18.994 38.9821 19.2679C38.7083 19.5417 38.5714 19.881 38.5714 20.2857V28.8571C38.5714 29.2619 38.7083 29.6012 38.9821 29.875C39.256 30.1488 39.5952 30.2857 40 30.2857Z" fill="#333333"/>
<path d="M10.0068 40C8.62775 40 7.33192 39.7375 6.11925 39.2125C4.90642 38.6875 3.84583 37.9708 2.9375 37.0625C2.02917 36.1542 1.3125 35.093 0.7875 33.879C0.2625 32.665 0 31.3678 0 29.9875C0 28.6072 0.2625 27.31 0.7875 26.096C1.3125 24.882 2.02917 23.825 2.9375 22.925C3.84583 22.025 4.907 21.3125 6.121 20.7875C7.335 20.2625 8.63217 20 10.0125 20C11.3928 20 12.69 20.2625 13.904 20.7875C15.118 21.3125 16.175 22.025 17.075 22.925C17.975 23.825 18.6875 24.8833 19.2125 26.1C19.7375 27.3167 20 28.6144 20 29.9932C20 31.3723 19.7375 32.6681 19.2125 33.8807C18.6875 35.0936 17.975 36.1527 17.075 37.058C16.175 37.9632 15.1167 38.6798 13.9 39.208C12.6833 39.736 11.3856 40 10.0068 40Z" fill="white"/>
<path d="M16.025 36.0125C14.375 37.6708 12.3708 38.5 10.0125 38.5C7.65417 38.5 5.64583 37.6708 3.9875 36.0125C2.32917 34.3542 1.5 32.35 1.5 30C1.5 27.627 2.32917 25.6171 3.9875 23.9703C5.64583 22.3234 7.65 21.5 10 21.5C12.373 21.5 14.3829 22.325 16.0297 23.975C17.6766 25.625 18.5 27.6292 18.5 29.9875C18.5 32.3458 17.675 34.3542 16.025 36.0125Z" fill="#CCCCD6"/>
<path d="M10.8254 35.0015H9.32539V30.8515H5.00039V29.3515H9.32539V25.0015H10.8254V29.3515H15.0004V30.8515H10.8254V35.0015Z" fill="white"/>
</svg>
