<?xml version="1.0" encoding="utf-8"?><!-- Uploaded to: SVG Repo, www.svgrepo.com, Generator: SVG Repo Mixer Tools -->
<svg width="800px" height="800px" viewBox="0 0 64 64" xmlns="http://www.w3.org/2000/svg" xmlns:xlink="http://www.w3.org/1999/xlink" aria-hidden="true" role="img" class="iconify iconify--emojione" preserveAspectRatio="xMidYMid meet"><path d="M60.7 56.1c-.3-.8-19.1-12-19.1-12c-2.6-1.9-3-3.8-.8-4.9c1.8-.9 3.4-3.9 4.6-7.1c.2.1.4.1.7 0c5-1.5 5.1-11.5 1.7-9.7c3.1-27.2-34.5-27.2-31.4 0c-3.4-1.8-3.4 8.3 1.6 9.7c.2.1.5 0 .7 0c1.2 3.2 2.8 6.2 4.6 7.1c2.2 1.1 1.7 2.9-.9 5c-.9.7-13 7.5-16.4 9.8c-1.4.9-2.4 1.7-2.6 2.2C2.4 58.4 2 62 2 62h60s-.4-3.6-1.3-5.9" fill="#5d6d74"></path></svg>