<svg width="20" height="18" viewBox="0 0 20 18" fill="none" xmlns="http://www.w3.org/2000/svg">
<path d="M9.99999 6.85352C9.4355 6.85352 8.88369 7.02092 8.41432 7.33453C7.94496 7.64813 7.5791 8.09394 7.36305 8.61545C7.14701 9.13697 7.09047 9.71078 7.20057 10.2644C7.31066 10.8181 7.58247 11.3266 7.9816 11.7258C8.38072 12.125 8.88923 12.3969 9.44286 12.5071C9.9965 12.6172 10.5704 12.5608 11.092 12.3448C11.6135 12.1289 12.0593 11.7632 12.373 11.2938C12.6867 10.8245 12.8541 10.2727 12.8542 9.70822C12.8542 8.9512 12.5535 8.22512 12.0183 7.68978C11.483 7.15444 10.757 6.85363 9.99999 6.85352Z" fill="#333333"/>
<path d="M18 2.37413H13.5338L12.8298 1.31814C12.7509 1.21297 12.6501 1.12627 12.5342 1.06424C12.4184 1.0022 12.2903 0.966272 12.1591 0.958984H7.84131C7.70979 0.966279 7.58149 1.00223 7.46533 1.06434C7.34917 1.12645 7.24799 1.21325 7.16889 1.31858L6.46533 2.37413H2C1.46978 2.37484 0.961509 2.5858 0.586589 2.96072C0.211669 3.33564 0.000705545 3.84392 0 4.37413V15.0408C0.000822807 15.571 0.211803 16.0792 0.586697 16.4541C0.961592 16.829 1.46982 17.04 2 17.0408H18C18.5303 17.0402 19.0386 16.8293 19.4136 16.4543C19.7885 16.0794 19.9994 15.5711 20 15.0408V4.37413C20 3.8437 19.7893 3.33492 19.4142 2.95985C19.0392 2.58478 18.5304 2.37413 18 2.37413ZM3.10314 6.27941C2.88032 6.27932 2.66249 6.21315 2.47727 6.0893C2.29205 5.96545 2.14771 5.78954 2.0625 5.58366C1.97729 5.37778 1.95507 5.15125 1.99859 4.93273C2.04211 4.7142 2.14944 4.51343 2.30702 4.3559C2.46461 4.19838 2.66536 4.09118 2.8839 4.04774C3.10244 4.00431 3.32899 4.02658 3.53483 4.11187C3.74068 4.19716 3.91658 4.34164 4.04036 4.52691C4.16414 4.71218 4.2302 4.92996 4.2302 5.15278C4.2302 5.30077 4.20107 5.44726 4.14442 5.58398C4.08777 5.72071 4.00473 5.84503 3.90007 5.94965C3.7954 6.05428 3.67114 6.1372 3.5344 6.19379C3.39765 6.25039 3.25113 6.27946 3.10314 6.27941ZM10 14.3746C9.07702 14.3746 8.17476 14.1009 7.40734 13.5881C6.63991 13.0753 6.04179 12.3464 5.68859 11.4937C5.33538 10.641 5.24295 9.70266 5.42301 8.79742C5.60308 7.89217 6.04755 7.06074 6.7002 6.40809C7.35284 5.75545 8.18433 5.31092 9.08957 5.13086C9.99482 4.95079 10.9331 5.04327 11.7859 5.39648C12.6386 5.74969 13.3674 6.3478 13.8802 7.11523C14.393 7.88266 14.6667 8.78492 14.6667 9.7079C14.6667 10.9456 14.175 12.1325 13.2998 13.0077C12.4246 13.8829 11.2377 14.3746 10 14.3746Z" fill="#333333"/>
</svg>
