<svg width="16" height="16" viewBox="0 0 16 16" fill="none" xmlns="http://www.w3.org/2000/svg">
<path fill-rule="evenodd" clip-rule="evenodd" d="M7.57374 1.00568C8.11922 0.47214 9.06901 0.561064 9.47972 1.27245L15.2884 11.3334C15.7578 12.1464 15.1711 13.1627 14.2323 13.1627H2.61489C1.6761 13.1627 1.08937 12.1464 1.55876 11.3334L7.36747 1.27244C7.42614 1.17082 7.49581 1.0819 7.57374 1.00568Z" fill="#E86826"/>
<path d="M9.08015 4.66269L8.97145 9.31396H8.03848L7.92526 4.66269H9.08015ZM7.89355 10.7406C7.89355 10.5745 7.9479 10.4356 8.0566 10.3239C8.16831 10.2092 8.3223 10.1518 8.51855 10.1518C8.71179 10.1518 8.86427 10.2092 8.97598 10.3239C9.0877 10.4356 9.14355 10.5745 9.14355 10.7406C9.14355 10.9006 9.0877 11.038 8.97598 11.1527C8.86427 11.2644 8.71179 11.3203 8.51855 11.3203C8.3223 11.3203 8.16831 11.2644 8.0566 11.1527C7.9479 11.038 7.89355 10.9006 7.89355 10.7406Z" fill="white"/>
</svg>
