<svg width="15" height="16" viewBox="0 0 15 16" fill="none" xmlns="http://www.w3.org/2000/svg">
<path d="M8.41824 10.6388L10.4098 10.6454C11.8623 10.6505 13.0482 9.47261 13.0529 8.02007C13.058 6.56737 11.8802 5.38157 10.4275 5.37681L7.55369 5.36709C6.10115 5.36201 4.91527 6.53989 4.91051 7.99244C4.90971 8.207 4.9354 8.41545 4.98336 8.61541L6.52193 8.62054C6.41106 8.43859 6.34672 8.22546 6.34742 7.99738C6.34965 7.3371 6.88871 6.80168 7.54891 6.80399L10.4227 6.81372C11.083 6.81595 11.6184 7.35501 11.6161 8.01521C11.6139 8.67548 11.0749 9.21083 10.4146 9.20859L9.57026 9.20581C9.33282 9.78837 8.92895 10.2854 8.41824 10.6388Z" fill="black"/>
<path d="M5.72425 5.36128L3.73282 5.35462C2.28012 5.34954 1.09432 6.52734 1.08956 7.98004C1.08449 9.43259 2.26237 10.6185 3.71499 10.6233L6.58872 10.6329C8.04134 10.6379 9.22707 9.46006 9.2319 8.0076C9.23279 7.79311 9.20709 7.58466 9.15914 7.3847L7.62056 7.37958C7.73128 7.56152 7.79577 7.7745 7.79507 8.00274C7.79284 8.66301 7.25386 9.19835 6.59359 9.19612L3.71969 9.18632C3.05942 9.18408 2.52407 8.6451 2.52631 7.98483C2.52854 7.32455 3.06752 6.78921 3.7278 6.79144L4.57215 6.79438C4.80951 6.21174 5.21346 5.71467 5.72425 5.36128Z" fill="black"/>
</svg>
