<svg width="15" height="16" viewBox="0 0 15 16" fill="none" xmlns="http://www.w3.org/2000/svg">
<path fill-rule="evenodd" clip-rule="evenodd" d="M12.7802 15.2017L6.29863 8.72017C5.90089 8.32243 5.90089 7.67757 6.29863 7.27983L12.7802 0.798305C13.1779 0.400565 13.8228 0.400565 14.2205 0.798305C14.6182 1.19604 14.6182 1.8409 14.2205 2.23864L9.47761 6.98153L9.05574 7.62933V8.30832L9.47761 9.01847L14.2205 13.7614C14.6182 14.1591 14.6182 14.804 14.2205 15.2017C13.8228 15.5994 13.1779 15.5994 12.7802 15.2017Z" fill="#757575"/>
<path fill-rule="evenodd" clip-rule="evenodd" d="M1.73864 0.798304L8.22017 7.27983C8.61791 7.67757 8.61791 8.32243 8.22017 8.72017L1.73864 15.2017C1.3409 15.5994 0.696043 15.5994 0.298304 15.2017C-0.0994347 14.804 -0.0994347 14.1591 0.298304 13.7614L5.04119 9.01847L5.46305 8.37067V7.69168L5.04119 6.98153L0.298304 2.23864C-0.0994347 1.8409 -0.0994347 1.19604 0.298304 0.798304C0.696043 0.400565 1.3409 0.400565 1.73864 0.798304Z" fill="#757575"/>
</svg>
