<svg width="275" height="57" viewBox="0 0 275 57" fill="none" xmlns="http://www.w3.org/2000/svg">
<path d="M17.1543 45.1493C13.2419 45.1493 10.0389 44.4177 7.54533 42.9545C5.09471 41.4495 3.26749 39.422 2.06368 36.8719C0.859867 34.3218 0.19347 31.4164 0.0644897 28.1556C0.0214965 26.4416 0 24.6022 0 22.6373C0 20.6725 0.0214965 18.7913 0.0644897 16.9937C0.19347 13.7329 0.859867 10.8275 2.06368 8.27736C3.26749 5.68546 5.09471 3.65793 7.54533 2.19476C10.0389 0.731586 13.2419 0 17.1543 0C20.2069 0 22.808 0.418048 24.9576 1.25414C27.1073 2.09024 28.8485 3.19807 30.1813 4.57763C31.5571 5.91539 32.5675 7.37856 33.2124 8.96714C33.9002 10.5139 34.2872 12.0398 34.3732 13.5448C34.4162 13.921 34.2872 14.2346 33.9862 14.4854C33.7283 14.6944 33.4058 14.7989 33.0189 14.7989H31.7291C31.3851 14.7989 31.0842 14.7153 30.8262 14.5481C30.5683 14.3391 30.3963 13.9837 30.3103 13.4821C29.4934 9.76144 27.9457 7.21134 25.667 5.83178C23.4314 4.45222 20.5938 3.76244 17.1543 3.76244C13.2419 3.76244 10.1249 4.84936 7.80329 7.02322C5.52464 9.15526 4.29933 12.5833 4.12736 17.3072C3.99838 20.7352 3.99838 24.2468 4.12736 27.842C4.29933 32.566 5.52464 36.0149 7.80329 38.1887C10.1249 40.3208 13.2419 41.3868 17.1543 41.3868C20.5938 41.3868 23.4314 40.697 25.667 39.3175C27.9457 37.9379 29.4934 35.3878 30.3103 31.6672C30.3963 31.1655 30.5683 30.8311 30.8262 30.6639C31.0842 30.4548 31.3851 30.3503 31.7291 30.3503H33.0189C33.4058 30.3503 33.7283 30.4757 33.9862 30.7266C34.2872 30.9356 34.4162 31.2282 34.3732 31.6045C34.2872 33.1095 33.9002 34.6562 33.2124 36.2448C32.5675 37.7916 31.5571 39.2548 30.1813 40.6343C28.8485 41.9721 27.1073 43.059 24.9576 43.8951C22.808 44.7312 20.2069 45.1493 17.1543 45.1493Z" fill="#050F77"/>
<path d="M55.8075 45.1493C52.712 45.1493 50.1109 44.5222 48.0042 43.268C45.9406 42.0139 44.3498 40.2999 43.232 38.126C42.1572 35.9522 41.5767 33.5275 41.4908 30.852C41.4478 30.2249 41.4263 29.347 41.4263 28.2183C41.4263 27.0896 41.4478 26.2117 41.4908 25.5846C41.5767 22.8673 42.1572 20.4426 43.232 18.3105C44.3498 16.1367 45.9406 14.4227 48.0042 13.1685C50.1109 11.9144 52.712 11.2873 55.8075 11.2873C58.9031 11.2873 61.4827 11.9144 63.5463 13.1685C65.653 14.4227 67.2438 16.1367 68.3186 18.3105C69.4364 20.4426 70.0383 22.8673 70.1243 25.5846C70.1673 26.2117 70.1888 27.0896 70.1888 28.2183C70.1888 29.347 70.1673 30.2249 70.1243 30.852C70.0383 33.5275 69.4364 35.9522 68.3186 38.126C67.2438 40.2999 65.653 42.0139 63.5463 43.268C61.4827 44.5222 58.9031 45.1493 55.8075 45.1493ZM55.8075 41.5122C58.8171 41.5122 61.2677 40.5716 63.1594 38.6904C65.0511 36.8092 66.0614 34.0919 66.1904 30.5385C66.2334 29.9114 66.2549 29.138 66.2549 28.2183C66.2549 27.2986 66.2334 26.5252 66.1904 25.8981C66.0614 22.3029 65.0511 19.5856 63.1594 17.7462C61.2677 15.8649 58.8171 14.9243 55.8075 14.9243C52.798 14.9243 50.3474 15.8649 48.4557 17.7462C46.564 19.5856 45.5536 22.3029 45.4246 25.8981C45.3817 26.5252 45.3602 27.2986 45.3602 28.2183C45.3602 29.138 45.3817 29.9114 45.4246 30.5385C45.5536 34.0919 46.564 36.8092 48.4557 38.6904C50.3474 40.5716 52.798 41.5122 55.8075 41.5122Z" fill="#050F77"/>
<path d="M80.418 44.5222C79.9451 44.5222 79.5582 44.3759 79.2572 44.0832C78.9563 43.7906 78.8058 43.4353 78.8058 43.0172V2.19476C78.8058 1.7349 78.9563 1.35866 79.2572 1.06603C79.5582 0.77339 79.9451 0.627072 80.418 0.627072H85.5127C86.1146 0.627072 86.5661 0.794292 86.867 1.12873C87.168 1.42136 87.3615 1.65129 87.4474 1.81851L99.894 24.3931L112.47 1.81851C112.556 1.65129 112.749 1.42136 113.05 1.12873C113.351 0.794292 113.802 0.627072 114.404 0.627072H119.434C119.907 0.627072 120.294 0.77339 120.595 1.06603C120.896 1.35866 121.047 1.7349 121.047 2.19476V43.0172C121.047 43.4353 120.896 43.7906 120.595 44.0832C120.294 44.3759 119.907 44.5222 119.434 44.5222H114.017C113.544 44.5222 113.157 44.3759 112.857 44.0832C112.599 43.7906 112.47 43.4353 112.47 43.0172V15.8649L103.441 32.6078C103.226 32.984 102.947 33.3185 102.603 33.6111C102.259 33.8619 101.807 33.9874 101.248 33.9874H98.6042C98.0023 33.9874 97.5294 33.8619 97.1854 33.6111C96.8845 33.3185 96.6265 32.984 96.4116 32.6078L87.3829 15.8649V43.0172C87.3829 43.4353 87.2325 43.7906 86.9315 44.0832C86.6306 44.3759 86.2651 44.5222 85.8352 44.5222H80.418Z" fill="#050F77"/>
<path d="M140.042 45.1493C137.806 45.1493 135.786 44.7312 133.98 43.8951C132.174 43.0172 130.734 41.8676 129.659 40.4462C128.627 38.983 128.111 37.3526 128.111 35.555C128.111 32.6287 129.315 30.3085 131.723 28.5945C134.173 26.8387 137.398 25.6682 141.396 25.0829L150.231 23.8288V22.5119C150.231 20.7561 149.78 19.3975 148.877 18.4359C147.974 17.4744 146.427 16.9937 144.234 16.9937C142.686 16.9937 141.418 17.3072 140.429 17.9343C139.483 18.5196 138.774 19.3138 138.301 20.3172C137.957 20.8606 137.462 21.1324 136.818 21.1324H131.723C131.25 21.1324 130.884 21.0069 130.627 20.7561C130.412 20.5053 130.304 20.1708 130.304 19.7528C130.347 19.0839 130.627 18.2687 131.142 17.3072C131.658 16.3457 132.475 15.426 133.593 14.5481C134.711 13.6284 136.151 12.855 137.914 12.2279C139.677 11.6009 141.805 11.2873 144.298 11.2873C147.007 11.2873 149.286 11.6218 151.134 12.2906C153.026 12.9177 154.531 13.7747 155.649 14.8616C156.766 15.9486 157.583 17.2236 158.099 18.6868C158.615 20.1499 158.873 21.6967 158.873 23.3271V43.0172C158.873 43.4353 158.723 43.7906 158.422 44.0832C158.121 44.3759 157.755 44.5222 157.325 44.5222H152.102C151.629 44.5222 151.242 44.3759 150.941 44.0832C150.683 43.7906 150.554 43.4353 150.554 43.0172V40.5716C149.995 41.3659 149.243 42.1184 148.297 42.8291C147.351 43.498 146.19 44.0623 144.814 44.5222C143.482 44.9402 141.891 45.1493 140.042 45.1493ZM142.235 39.1921C143.739 39.1921 145.094 38.8785 146.298 38.2514C147.544 37.6244 148.512 36.6629 149.2 35.3669C149.931 34.0292 150.296 32.357 150.296 30.3503V29.0335L143.847 30.0368C141.31 30.413 139.419 31.0192 138.172 31.8553C136.925 32.6914 136.302 33.7156 136.302 34.928C136.302 35.8477 136.581 36.642 137.14 37.3108C137.742 37.9379 138.494 38.4187 139.397 38.7531C140.3 39.0457 141.246 39.1921 142.235 39.1921Z" fill="#050F77"/>
<path d="M168.759 56.4366C168.329 56.4366 167.963 56.2903 167.662 55.9976C167.361 55.705 167.211 55.3496 167.211 54.9316V13.4194C167.211 13.0013 167.361 12.646 167.662 12.3533C167.963 12.0607 168.329 11.9144 168.759 11.9144H173.853C174.326 11.9144 174.692 12.0607 174.95 12.3533C175.251 12.646 175.401 13.0013 175.401 13.4194V15.9277C176.433 14.5899 177.787 13.4821 179.464 12.6042C181.141 11.7263 183.226 11.2873 185.72 11.2873C187.998 11.2873 189.976 11.6427 191.653 12.3533C193.329 13.064 194.727 14.0882 195.845 15.426C196.962 16.7219 197.822 18.2687 198.424 20.0663C199.026 21.8639 199.37 23.8497 199.456 26.0235C199.499 26.7342 199.52 27.4658 199.52 28.2183C199.52 28.9708 199.499 29.7233 199.456 30.4757C199.413 32.566 199.091 34.5099 198.489 36.3075C197.887 38.0633 197.005 39.6101 195.845 40.9479C194.727 42.2438 193.329 43.268 191.653 44.0205C189.976 44.773 187.998 45.1493 185.72 45.1493C183.398 45.1493 181.42 44.7521 179.787 43.9578C178.153 43.1217 176.82 42.0348 175.788 40.697V54.9316C175.788 55.3496 175.638 55.705 175.337 55.9976C175.079 56.2903 174.713 56.4366 174.24 56.4366H168.759ZM183.333 38.4396C185.182 38.4396 186.622 38.0633 187.654 37.3108C188.686 36.5166 189.417 35.4923 189.847 34.2382C190.32 32.984 190.599 31.6045 190.685 30.0995C190.771 28.8454 190.771 27.5912 190.685 26.3371C190.599 24.8321 190.32 23.4525 189.847 22.1984C189.417 20.9442 188.686 19.9409 187.654 19.1884C186.622 18.3941 185.182 17.997 183.333 17.997C181.571 17.997 180.13 18.3941 179.013 19.1884C177.938 19.9827 177.142 21.0069 176.627 22.2611C176.154 23.4734 175.874 24.7276 175.788 26.0235C175.745 26.776 175.724 27.5703 175.724 28.4064C175.724 29.2425 175.745 30.0577 175.788 30.852C175.831 32.1061 176.132 33.3185 176.691 34.489C177.25 35.6177 178.067 36.5584 179.142 37.3108C180.216 38.0633 181.614 38.4396 183.333 38.4396Z" fill="#050F77"/>
<path d="M221.206 45.1493C216.433 45.1493 212.65 43.8115 209.856 41.136C207.061 38.4605 205.556 34.6562 205.341 29.7233C205.298 29.3052 205.277 28.7826 205.277 28.1556C205.277 27.4867 205.298 26.9641 205.341 26.5879C205.513 23.4525 206.244 20.7352 207.534 18.4359C208.867 16.1367 210.694 14.3809 213.016 13.1685C215.337 11.9144 218.067 11.2873 221.206 11.2873C224.688 11.2873 227.612 11.998 229.976 13.4194C232.341 14.7989 234.125 16.7428 235.329 19.2511C236.533 21.7176 237.135 24.5813 237.135 27.842V29.1589C237.135 29.5769 236.984 29.9323 236.683 30.2249C236.382 30.5176 235.995 30.6639 235.523 30.6639H214.112C214.112 30.6639 214.112 30.7266 214.112 30.852C214.112 30.9774 214.112 31.0819 214.112 31.1655C214.155 32.6287 214.434 33.9874 214.95 35.2415C215.509 36.4538 216.305 37.4363 217.336 38.1887C218.411 38.9412 219.68 39.3175 221.141 39.3175C222.345 39.3175 223.355 39.1503 224.172 38.8158C224.989 38.4396 225.656 38.0215 226.171 37.5617C226.687 37.1018 227.053 36.7256 227.268 36.4329C227.655 35.9313 227.956 35.6386 228.171 35.555C228.429 35.4296 228.794 35.3669 229.267 35.3669H234.813C235.243 35.3669 235.587 35.4923 235.845 35.7432C236.146 35.994 236.275 36.3075 236.232 36.6838C236.189 37.3526 235.824 38.1678 235.136 39.1294C234.491 40.0909 233.545 41.0315 232.298 41.9512C231.051 42.8709 229.482 43.6443 227.59 44.2714C225.742 44.8566 223.613 45.1493 221.206 45.1493ZM214.112 25.3965H228.364V25.2083C228.364 23.5779 228.085 22.1566 227.526 20.9442C226.967 19.7319 226.15 18.7704 225.075 18.0597C224 17.349 222.711 16.9937 221.206 16.9937C219.701 16.9937 218.411 17.349 217.336 18.0597C216.262 18.7704 215.445 19.7319 214.886 20.9442C214.37 22.1566 214.112 23.5779 214.112 25.2083V25.3965Z" fill="#050F77"/>
<path d="M258.813 45.1493C255.374 45.1493 252.471 44.564 250.107 43.3934C247.785 42.2229 246.001 40.5716 244.754 38.4396C243.55 36.3075 242.862 33.8201 242.691 30.9774C242.648 30.2249 242.626 29.3052 242.626 28.2183C242.626 27.1314 242.648 26.2117 242.691 25.4592C242.862 22.5746 243.572 20.0872 244.819 17.997C246.108 15.8649 247.914 14.2137 250.236 13.0431C252.6 11.8726 255.46 11.2873 258.813 11.2873C262.167 11.2873 265.004 11.8726 267.326 13.0431C269.69 14.2137 271.496 15.8649 272.743 17.997C274.033 20.0872 274.764 22.5746 274.936 25.4592C274.979 26.2117 275 27.1314 275 28.2183C275 29.3052 274.979 30.2249 274.936 30.9774C274.764 33.8201 274.054 36.3075 272.807 38.4396C271.604 40.5716 269.819 42.2229 267.455 43.3934C265.133 44.564 262.252 45.1493 258.813 45.1493ZM258.813 38.9412C261.092 38.9412 262.854 38.2515 264.101 36.8719C265.348 35.4505 266.036 33.3812 266.165 30.6639C266.208 30.0368 266.229 29.2216 266.229 28.2183C266.229 27.215 266.208 26.3998 266.165 25.7727C266.036 23.0972 265.348 21.0488 264.101 19.6274C262.854 18.206 261.092 17.4953 258.813 17.4953C256.534 17.4953 254.772 18.206 253.525 19.6274C252.278 21.0488 251.59 23.0972 251.461 25.7727C251.418 26.3998 251.397 27.215 251.397 28.2183C251.397 29.2216 251.418 30.0368 251.461 30.6639C251.59 33.3812 252.278 35.4505 253.525 36.8719C254.772 38.2515 256.534 38.9412 258.813 38.9412Z" fill="#050F77"/>
</svg>
