<svg width="995" viewBox="0 0 995 211" fill="none" xmlns="http://www.w3.org/2000/svg">
<path d="M62.5493 168.33C48.4139 168.33 36.8416 165.612 27.8323 160.175C18.9783 154.583 12.3766 147.049 8.02727 137.574C3.67794 128.099 1.27027 117.303 0.804269 105.187C0.648937 98.8183 0.571271 91.9837 0.571271 84.683C0.571271 77.3823 0.648937 70.3923 0.804269 63.713C1.27027 51.597 3.67794 40.8013 8.02727 31.326C12.3766 21.6953 18.9783 14.1617 27.8323 8.725C36.8416 3.28833 48.4139 0.569991 62.5493 0.569991C73.5779 0.569991 82.9756 2.12332 90.7423 5.22999C98.5089 8.33666 104.8 12.453 109.615 17.579C114.586 22.5497 118.236 27.9863 120.566 33.889C123.052 39.6363 124.45 45.306 124.76 50.898C124.916 52.296 124.45 53.461 123.362 54.393C122.43 55.1697 121.265 55.558 119.867 55.558H115.207C113.965 55.558 112.877 55.2473 111.945 54.626C111.013 53.8493 110.392 52.529 110.081 50.665C107.13 36.8403 101.538 27.365 93.3053 22.239C85.2279 17.113 74.9759 14.55 62.5493 14.55C48.4139 14.55 37.1523 18.5887 28.7643 26.666C20.5316 34.588 16.1046 47.3253 15.4833 64.878C15.0173 77.6153 15.0173 90.6633 15.4833 104.022C16.1046 121.575 20.5316 134.39 28.7643 142.467C37.1523 150.389 48.4139 154.35 62.5493 154.35C74.9759 154.35 85.2279 151.787 93.3053 146.661C101.538 141.535 107.13 132.06 110.081 118.235C110.392 116.371 111.013 115.128 111.945 114.507C112.877 113.73 113.965 113.342 115.207 113.342H119.867C121.265 113.342 122.43 113.808 123.362 114.74C124.45 115.517 124.916 116.604 124.76 118.002C124.45 123.594 123.052 129.341 120.566 135.244C118.236 140.991 114.586 146.428 109.615 151.554C104.8 156.525 98.5089 160.563 90.7423 163.67C82.9756 166.777 73.5779 168.33 62.5493 168.33ZM202.202 168.33C191.018 168.33 181.62 166 174.009 161.34C166.553 156.68 160.805 150.311 156.767 142.234C152.883 134.157 150.786 125.147 150.476 115.206C150.32 112.876 150.243 109.614 150.243 105.42C150.243 101.226 150.32 97.964 150.476 95.634C150.786 85.5373 152.883 76.528 156.767 68.606C160.805 60.5287 166.553 54.16 174.009 49.5C181.62 44.84 191.018 42.51 202.202 42.51C213.386 42.51 222.706 44.84 230.162 49.5C237.773 54.16 243.52 60.5287 247.404 68.606C251.442 76.528 253.617 85.5373 253.928 95.634C254.083 97.964 254.161 101.226 254.161 105.42C254.161 109.614 254.083 112.876 253.928 115.206C253.617 125.147 251.442 134.157 247.404 142.234C243.52 150.311 237.773 156.68 230.162 161.34C222.706 166 213.386 168.33 202.202 168.33ZM202.202 154.816C213.075 154.816 221.929 151.321 228.764 144.331C235.598 137.341 239.249 127.244 239.715 114.041C239.87 111.711 239.948 108.837 239.948 105.42C239.948 102.003 239.87 99.129 239.715 96.799C239.249 83.4403 235.598 73.3437 228.764 66.509C221.929 59.519 213.075 56.024 202.202 56.024C191.328 56.024 182.474 59.519 175.64 66.509C168.805 73.3437 165.155 83.4403 164.689 96.799C164.533 99.129 164.456 102.003 164.456 105.42C164.456 108.837 164.533 111.711 164.689 114.041C165.155 127.244 168.805 137.341 175.64 144.331C182.474 151.321 191.328 154.816 202.202 154.816Z" fill="#FF9E00"/>
<path d="M291.119 166C289.41 166 288.012 165.456 286.925 164.369C285.837 163.282 285.294 161.961 285.294 160.408V8.725C285.294 7.01632 285.837 5.61832 286.925 4.531C288.012 3.44366 289.41 2.89999 291.119 2.89999H309.526C311.7 2.89999 313.331 3.52132 314.419 4.76399C315.506 5.85132 316.205 6.70565 316.516 7.32699L361.485 91.207L406.92 7.32699C407.23 6.70565 407.929 5.85132 409.017 4.76399C410.104 3.52132 411.735 2.89999 413.91 2.89999H432.084C433.792 2.89999 435.19 3.44366 436.278 4.531C437.365 5.61832 437.909 7.01632 437.909 8.725V160.408C437.909 161.961 437.365 163.282 436.278 164.369C435.19 165.456 433.792 166 432.084 166H412.512C410.803 166 409.405 165.456 408.318 164.369C407.386 163.282 406.92 161.961 406.92 160.408V59.519L374.3 121.73C373.523 123.128 372.513 124.371 371.271 125.458C370.028 126.39 368.397 126.856 366.378 126.856H356.825C354.65 126.856 352.941 126.39 351.699 125.458C350.611 124.371 349.679 123.128 348.903 121.73L316.283 59.519V160.408C316.283 161.961 315.739 163.282 314.652 164.369C313.564 165.456 312.244 166 310.691 166H291.119ZM506.538 168.33C498.461 168.33 491.16 166.777 484.636 163.67C478.112 160.408 472.908 156.136 469.025 150.855C465.297 145.418 463.433 139.36 463.433 132.681C463.433 121.808 467.782 113.187 476.481 106.818C485.335 100.294 496.985 95.9447 511.431 93.77L543.352 89.11V84.217C543.352 77.693 541.721 72.6447 538.459 69.072C535.197 65.4993 529.605 63.713 521.683 63.713C516.091 63.713 511.509 64.878 507.936 67.208C504.519 69.3827 501.956 72.334 500.247 76.062C499.004 78.0813 497.218 79.091 494.888 79.091H476.481C474.772 79.091 473.452 78.625 472.52 77.693C471.743 76.761 471.355 75.5183 471.355 73.965C471.51 71.4797 472.52 68.4507 474.384 64.878C476.248 61.3053 479.199 57.888 483.238 54.626C487.277 51.2087 492.48 48.335 498.849 46.005C505.218 43.675 512.907 42.51 521.916 42.51C531.702 42.51 539.935 43.7527 546.614 46.238C553.449 48.568 558.885 51.7523 562.924 55.791C566.963 59.8297 569.914 64.5673 571.778 70.004C573.642 75.4407 574.574 81.188 574.574 87.246V160.408C574.574 161.961 574.03 163.282 572.943 164.369C571.856 165.456 570.535 166 568.982 166H550.109C548.4 166 547.002 165.456 545.915 164.369C544.983 163.282 544.517 161.961 544.517 160.408V151.321C542.498 154.272 539.779 157.068 536.362 159.709C532.945 162.194 528.751 164.291 523.78 166C518.965 167.553 513.217 168.33 506.538 168.33ZM514.46 146.195C519.897 146.195 524.79 145.03 529.139 142.7C533.644 140.37 537.139 136.797 539.624 131.982C542.265 127.011 543.585 120.798 543.585 113.342V108.449L520.285 112.177C511.12 113.575 504.286 115.827 499.781 118.934C495.276 122.041 493.024 125.846 493.024 130.351C493.024 133.768 494.034 136.72 496.053 139.205C498.228 141.535 500.946 143.321 504.208 144.564C507.47 145.651 510.887 146.195 514.46 146.195ZM610.29 210.27C608.737 210.27 607.417 209.726 606.329 208.639C605.242 207.552 604.698 206.231 604.698 204.678V50.432C604.698 48.8787 605.242 47.5583 606.329 46.471C607.417 45.3837 608.737 44.84 610.29 44.84H628.697C630.406 44.84 631.726 45.3837 632.658 46.471C633.746 47.5583 634.289 48.8787 634.289 50.432V59.752C638.017 54.7813 642.91 50.665 648.968 47.403C655.026 44.141 662.56 42.51 671.569 42.51C679.802 42.51 686.947 43.8303 693.005 46.471C699.063 49.1117 704.112 52.9173 708.15 57.888C712.189 62.7033 715.296 68.4507 717.47 75.13C719.645 81.8093 720.888 89.1877 721.198 97.265C721.354 99.9057 721.431 102.624 721.431 105.42C721.431 108.216 721.354 111.012 721.198 113.808C721.043 121.575 719.878 128.798 717.703 135.477C715.529 142.001 712.344 147.748 708.15 152.719C704.112 157.534 699.063 161.34 693.005 164.136C686.947 166.932 679.802 168.33 671.569 168.33C663.181 168.33 656.036 166.854 650.133 163.903C644.231 160.796 639.415 156.758 635.687 151.787V204.678C635.687 206.231 635.144 207.552 634.056 208.639C633.124 209.726 631.804 210.27 630.095 210.27H610.29ZM662.948 143.399C669.628 143.399 674.831 142.001 678.559 139.205C682.287 136.254 684.928 132.448 686.481 127.788C688.19 123.128 689.2 118.002 689.51 112.41C689.821 107.75 689.821 103.09 689.51 98.43C689.2 92.838 688.19 87.712 686.481 83.052C684.928 78.392 682.287 74.664 678.559 71.868C674.831 68.9167 669.628 67.441 662.948 67.441C656.58 67.441 651.376 68.9167 647.337 71.868C643.454 74.8193 640.58 78.625 638.716 83.285C637.008 87.7897 635.998 92.4497 635.687 97.265C635.532 100.061 635.454 103.012 635.454 106.119C635.454 109.226 635.532 112.255 635.687 115.206C635.843 119.866 636.93 124.371 638.949 128.72C640.969 132.914 643.92 136.409 647.803 139.205C651.687 142.001 656.735 143.399 662.948 143.399ZM799.779 168.33C782.537 168.33 768.868 163.359 758.771 153.418C748.675 143.477 743.238 129.341 742.461 111.012C742.306 109.459 742.228 107.517 742.228 105.187C742.228 102.702 742.306 100.76 742.461 99.362C743.083 87.712 745.723 77.6153 750.383 69.072C755.199 60.5287 761.8 54.0047 770.188 49.5C778.576 44.84 788.44 42.51 799.779 42.51C812.361 42.51 822.924 45.1507 831.467 50.432C840.011 55.558 846.457 62.781 850.806 72.101C855.156 81.2657 857.33 91.906 857.33 104.022V108.915C857.33 110.468 856.787 111.789 855.699 112.876C854.612 113.963 853.214 114.507 851.505 114.507H774.149C774.149 114.507 774.149 114.74 774.149 115.206C774.149 115.672 774.149 116.06 774.149 116.371C774.305 121.808 775.314 126.856 777.178 131.516C779.198 136.021 782.071 139.671 785.799 142.467C789.683 145.263 794.265 146.661 799.546 146.661C803.896 146.661 807.546 146.04 810.497 144.797C813.449 143.399 815.856 141.846 817.72 140.137C819.584 138.428 820.905 137.03 821.681 135.943C823.079 134.079 824.167 132.992 824.943 132.681C825.875 132.215 827.196 131.982 828.904 131.982H848.942C850.496 131.982 851.738 132.448 852.67 133.38C853.758 134.312 854.224 135.477 854.068 136.875C853.913 139.36 852.593 142.389 850.107 145.962C847.777 149.535 844.36 153.03 839.855 156.447C835.351 159.864 829.681 162.738 822.846 165.068C816.167 167.243 808.478 168.33 799.779 168.33ZM774.149 94.935H825.642V94.236C825.642 88.178 824.633 82.8967 822.613 78.392C820.594 73.8873 817.643 70.3147 813.759 67.674C809.876 65.0333 805.216 63.713 799.779 63.713C794.343 63.713 789.683 65.0333 785.799 67.674C781.916 70.3147 778.965 73.8873 776.945 78.392C775.081 82.8967 774.149 88.178 774.149 94.236V94.935ZM935.653 168.33C923.226 168.33 912.741 166.155 904.198 161.806C895.81 157.457 889.364 151.321 884.859 143.399C880.51 135.477 878.024 126.235 877.403 115.672C877.248 112.876 877.17 109.459 877.17 105.42C877.17 101.381 877.248 97.964 877.403 95.168C878.024 84.45 880.587 75.2077 885.092 67.441C889.752 59.519 896.276 53.3833 904.664 49.034C913.207 44.6847 923.537 42.51 935.653 42.51C947.769 42.51 958.021 44.6847 966.409 49.034C974.952 53.3833 981.476 59.519 985.981 67.441C990.641 75.2077 993.282 84.45 993.903 95.168C994.058 97.964 994.136 101.381 994.136 105.42C994.136 109.459 994.058 112.876 993.903 115.672C993.282 126.235 990.719 135.477 986.214 143.399C981.865 151.321 975.418 157.457 966.875 161.806C958.487 166.155 948.08 168.33 935.653 168.33ZM935.653 145.263C943.886 145.263 950.254 142.7 954.759 137.574C959.264 132.293 961.749 124.604 962.215 114.507C962.37 112.177 962.448 109.148 962.448 105.42C962.448 101.692 962.37 98.663 962.215 96.333C961.749 86.3917 959.264 78.7803 954.759 73.499C950.254 68.2177 943.886 65.577 935.653 65.577C927.42 65.577 921.052 68.2177 916.547 73.499C912.042 78.7803 909.557 86.3917 909.091 96.333C908.936 98.663 908.858 101.692 908.858 105.42C908.858 109.148 908.936 112.177 909.091 114.507C909.557 124.604 912.042 132.293 916.547 137.574C921.052 142.7 927.42 145.263 935.653 145.263Z" fill="white"/>
</svg>
