<svg width="64" height="80" viewBox="0 0 64 80" fill="none" xmlns="http://www.w3.org/2000/svg">
<path d="M26.9 52.1H37.1L34.6 37.6C35.9333 37 37 36.1167 37.8 34.95C38.6 33.7833 39 32.5 39 31.1C39 29.1667 38.3167 27.5167 36.95 26.15C35.5833 24.7833 33.9333 24.1 32 24.1C30.0667 24.1 28.4167 24.7833 27.05 26.15C25.6833 27.5167 25 29.1667 25 31.1C25 32.5 25.4 33.7833 26.2 34.95C27 36.1167 28.0667 37 29.4 37.6L26.9 52.1ZM32 80C22.6667 77.6667 15 72.25 9 63.75C3 55.25 0 45.9333 0 35.8V12L32 0L64 12V35.8C64 45.9333 61 55.25 55 63.75C49 72.25 41.3333 77.6667 32 80ZM32 73.8C39.6667 71.2667 45.9167 66.4833 50.75 59.45C55.5833 52.4167 58 44.5333 58 35.8V16.2L32 6.4L6 16.2V35.8C6 44.5333 8.41667 52.4167 13.25 59.45C18.0833 66.4833 24.3333 71.2667 32 73.8Z" fill="#E86826"/>
</svg>
