<svg width="21" height="21" viewBox="0 0 21 21" fill="none" xmlns="http://www.w3.org/2000/svg">
<g clip-path="url(#clip0_298_147)">
<path d="M18.375 1.90845H13.6875L13.3203 1.17799C13.2425 1.02182 13.1227 0.890455 12.9743 0.798672C12.826 0.706889 12.6549 0.658329 12.4805 0.658454H8.01562C7.84155 0.657785 7.67082 0.706164 7.52297 0.798049C7.37513 0.889934 7.25615 1.02161 7.17969 1.17799L6.8125 1.90845H2.125C1.95924 1.90845 1.80027 1.9743 1.68306 2.09151C1.56585 2.20872 1.5 2.36769 1.5 2.53345L1.5 3.78345C1.5 3.94921 1.56585 4.10819 1.68306 4.2254C1.80027 4.34261 1.95924 4.40845 2.125 4.40845H18.375C18.5408 4.40845 18.6997 4.34261 18.8169 4.2254C18.9342 4.10819 19 3.94921 19 3.78345V2.53345C19 2.36769 18.9342 2.20872 18.8169 2.09151C18.6997 1.9743 18.5408 1.90845 18.375 1.90845ZM3.57812 18.9006C3.60793 19.3767 3.81803 19.8234 4.16565 20.15C4.51326 20.4766 4.97227 20.6584 5.44922 20.6585H15.0508C15.5277 20.6584 15.9867 20.4766 16.3344 20.15C16.682 19.8234 16.8921 19.3767 16.9219 18.9006L17.75 5.65845H2.75L3.57812 18.9006Z" fill="white"/>
</g>
<defs>
<clipPath id="clip0_298_147">
<rect width="20" height="20" fill="white" transform="translate(0.5 0.658447)"/>
</clipPath>
</defs>
</svg>
