<svg width="25" height="29" viewBox="0 0 25 29" fill="none" xmlns="http://www.w3.org/2000/svg">
<path d="M2.1875 1.875C1.69022 1.875 1.21331 2.07254 0.861675 2.42417C0.510044 2.77581 0.3125 3.25272 0.3125 3.75V5.625C0.3125 6.12228 0.510044 6.59919 0.861675 6.95083C1.21331 7.30246 1.69022 7.5 2.1875 7.5H3.125V24.375C3.125 25.3696 3.52009 26.3234 4.22335 27.0266C4.92661 27.7299 5.88044 28.125 6.875 28.125H18.125C19.1196 28.125 20.0734 27.7299 20.7766 27.0266C21.4799 26.3234 21.875 25.3696 21.875 24.375V7.5H22.8125C23.3098 7.5 23.7867 7.30246 24.1383 6.95083C24.49 6.59919 24.6875 6.12228 24.6875 5.625V3.75C24.6875 3.25272 24.49 2.77581 24.1383 2.42417C23.7867 2.07254 23.3098 1.875 22.8125 1.875H16.25C16.25 1.37772 16.0525 0.900806 15.7008 0.549175C15.3492 0.197544 14.8723 0 14.375 0L10.625 0C10.1277 0 9.65081 0.197544 9.29918 0.549175C8.94754 0.900806 8.75 1.37772 8.75 1.875H2.1875ZM7.8125 9.375C8.06114 9.375 8.2996 9.47377 8.47541 9.64959C8.65123 9.8254 8.75 10.0639 8.75 10.3125V23.4375C8.75 23.6861 8.65123 23.9246 8.47541 24.1004C8.2996 24.2762 8.06114 24.375 7.8125 24.375C7.56386 24.375 7.3254 24.2762 7.14959 24.1004C6.97377 23.9246 6.875 23.6861 6.875 23.4375V10.3125C6.875 10.0639 6.97377 9.8254 7.14959 9.64959C7.3254 9.47377 7.56386 9.375 7.8125 9.375ZM12.5 9.375C12.7486 9.375 12.9871 9.47377 13.1629 9.64959C13.3387 9.8254 13.4375 10.0639 13.4375 10.3125V23.4375C13.4375 23.6861 13.3387 23.9246 13.1629 24.1004C12.9871 24.2762 12.7486 24.375 12.5 24.375C12.2514 24.375 12.0129 24.2762 11.8371 24.1004C11.6613 23.9246 11.5625 23.6861 11.5625 23.4375V10.3125C11.5625 10.0639 11.6613 9.8254 11.8371 9.64959C12.0129 9.47377 12.2514 9.375 12.5 9.375ZM18.125 10.3125V23.4375C18.125 23.6861 18.0262 23.9246 17.8504 24.1004C17.6746 24.2762 17.4361 24.375 17.1875 24.375C16.9389 24.375 16.7004 24.2762 16.5246 24.1004C16.3488 23.9246 16.25 23.6861 16.25 23.4375V10.3125C16.25 10.0639 16.3488 9.8254 16.5246 9.64959C16.7004 9.47377 16.9389 9.375 17.1875 9.375C17.4361 9.375 17.6746 9.47377 17.8504 9.64959C18.0262 9.8254 18.125 10.0639 18.125 10.3125Z" fill="#333333"/>
</svg>
