<svg width="70" height="60" viewBox="0 0 70 60" fill="none" xmlns="http://www.w3.org/2000/svg">
<circle cx="40" cy="30" r="29.5" fill="white" stroke="#CCCCD6"/>
<path fill-rule="evenodd" clip-rule="evenodd" d="M30.2621 40.5058C30.6799 40.6829 31.1442 40.7178 31.5837 40.6052C31.9428 40.5129 32.2705 40.326 32.5327 40.064C32.7949 39.8019 32.9819 39.4743 33.0744 39.1153C33.1873 38.6759 33.1527 38.2114 32.9758 37.7936C32.799 37.3758 32.4897 37.0277 32.0957 36.8028C31.7016 36.5779 31.2446 36.4887 30.7949 36.549C30.3453 36.6093 29.9278 36.8156 29.6069 37.1364C29.286 37.4571 29.0793 37.8746 29.0188 38.3243C28.9582 38.7739 29.0472 39.231 29.2718 39.6252C29.4965 40.0194 29.8444 40.3288 30.2621 40.5058ZM30.2628 32.2398C30.6803 32.4169 31.1444 32.4519 31.5837 32.3394C31.9428 32.2471 32.2705 32.0602 32.5327 31.7982C32.7949 31.5361 32.9819 31.2085 33.0744 30.8495C33.1872 30.4103 33.1524 29.9462 32.9756 29.5286C32.7988 29.111 32.4897 28.7629 32.0958 28.5382C31.7019 28.3135 31.245 28.2246 30.7956 28.2849C30.3461 28.3451 29.9289 28.5515 29.6081 28.872C29.2874 29.1926 29.0809 29.6096 29.0203 30.0591C28.9598 30.5085 29.0486 30.9654 29.2731 31.3594C29.4976 31.7534 29.8454 32.0628 30.2628 32.2398ZM30.2622 23.9753C30.68 24.1523 31.1443 24.1871 31.5837 24.0744C31.9428 23.982 32.2706 23.795 32.5328 23.5328C32.795 23.2706 32.982 22.9428 33.0744 22.5837C33.1871 22.1443 33.1523 21.6799 32.9753 21.2622C32.7983 20.8445 32.489 20.4965 32.0948 20.2718C31.7007 20.0471 31.2437 19.958 30.794 20.0184C30.3444 20.0789 29.9271 20.2854 29.6062 20.6062C29.2854 20.927 29.0789 21.3442 29.0184 21.7939C28.958 22.2435 29.047 22.7007 29.2717 23.0948C29.4964 23.489 29.8445 23.7983 30.2622 23.9753ZM37.3509 40.0723H49.6674C49.8811 40.0711 50.092 40.0234 50.2855 39.9326C50.479 39.8418 50.6504 39.7099 50.7879 39.5462C50.9253 39.3825 51.0255 39.1909 51.0815 38.9846C51.1375 38.7783 51.1479 38.5624 51.1121 38.3517C51.0398 38.001 50.8469 37.6867 50.5669 37.4633C50.287 37.24 49.9377 37.1217 49.5796 37.1291H37.2656C37.0517 37.1299 36.8406 37.1773 36.6468 37.268C36.453 37.3586 36.2812 37.4904 36.1435 37.6541C36.0057 37.8179 35.9053 38.0097 35.8491 38.2162C35.793 38.4226 35.7825 38.6388 35.8184 38.8497C35.8907 39.2004 36.0836 39.5147 36.3636 39.7381C36.6435 39.9614 36.9928 40.0797 37.3509 40.0723ZM37.3517 31.8073H49.6674C49.8812 31.8064 50.0923 31.759 50.286 31.6683C50.4797 31.5775 50.6514 31.4456 50.789 31.2819C50.9267 31.1181 51.027 30.9264 51.0831 30.72C51.1392 30.5136 51.1496 30.2976 51.1138 30.0867C51.0416 29.7358 50.8489 29.4212 50.5689 29.1977C50.289 28.9742 49.9396 28.856 49.5814 28.8633H37.2666C37.0526 28.8641 36.8414 28.9115 36.6476 29.0022C36.4538 29.0928 36.282 29.2246 36.1443 29.3883C36.0066 29.5521 35.9062 29.7439 35.8501 29.9504C35.7939 30.1568 35.7834 30.373 35.8192 30.5839C35.8914 30.9348 36.0842 31.2494 36.3642 31.4729C36.6442 31.6964 36.9935 31.8146 37.3517 31.8073ZM37.3534 23.5415H49.6674C49.8815 23.5411 50.0931 23.494 50.2872 23.4035C50.4813 23.313 50.6533 23.1813 50.7913 23.0175C50.9293 22.8537 51.03 22.6617 51.0863 22.4551C51.1425 22.2484 51.1531 22.0321 51.1172 21.8209C51.0449 21.4702 50.852 21.1559 50.572 20.9326C50.2921 20.7092 49.9429 20.591 49.5848 20.5983H37.2682C37.0543 20.5991 36.8431 20.6465 36.6493 20.7372C36.4555 20.8279 36.2838 20.9596 36.1461 21.1234C36.0083 21.2871 35.9079 21.4789 35.8517 21.6854C35.7956 21.8919 35.7851 22.108 35.821 22.3189C35.8933 22.6696 36.0861 22.984 36.3661 23.2073C36.646 23.4306 36.9953 23.5489 37.3534 23.5415Z" fill="#333333"/>
<g clip-path="url(#clip0_607_275)">
<path d="M10.0068 40C8.62775 40 7.33192 39.7375 6.11925 39.2125C4.90642 38.6875 3.84583 37.9708 2.9375 37.0625C2.02917 36.1542 1.3125 35.093 0.7875 33.879C0.2625 32.665 0 31.3678 0 29.9875C0 28.6072 0.2625 27.31 0.7875 26.096C1.3125 24.882 2.02917 23.825 2.9375 22.925C3.84583 22.025 4.907 21.3125 6.121 20.7875C7.335 20.2625 8.63217 20 10.0125 20C11.3928 20 12.69 20.2625 13.904 20.7875C15.118 21.3125 16.175 22.025 17.075 22.925C17.975 23.825 18.6875 24.8833 19.2125 26.1C19.7375 27.3167 20 28.6144 20 29.9932C20 31.3723 19.7375 32.6681 19.2125 33.8807C18.6875 35.0936 17.975 36.1527 17.075 37.058C16.175 37.9632 15.1167 38.6798 13.9 39.208C12.6833 39.736 11.3856 40 10.0068 40Z" fill="white"/>
<path d="M16.025 36.0125C14.375 37.6708 12.3708 38.5 10.0125 38.5C7.65417 38.5 5.64583 37.6708 3.9875 36.0125C2.32917 34.3542 1.5 32.35 1.5 30C1.5 27.627 2.32917 25.6171 3.9875 23.9703C5.64583 22.3234 7.65 21.5 10 21.5C12.373 21.5 14.3829 22.325 16.0297 23.975C17.6766 25.625 18.5 27.6292 18.5 29.9875C18.5 32.3458 17.675 34.3542 16.025 36.0125Z" fill="#CCCCD6"/>
<path d="M10.8254 35.0015H9.3254V30.8515H5.0004V29.3515H9.3254V25.0015H10.8254V29.3515H15.0004V30.8515H10.8254V35.0015Z" fill="white"/>
</g>
<defs>
<clipPath id="clip0_607_275">
<rect width="20" height="20" fill="white" transform="translate(0 20)"/>
</clipPath>
</defs>
</svg>
