<svg width="20" height="20" viewBox="0 0 20 20" fill="none" xmlns="http://www.w3.org/2000/svg">
<path fill-rule="evenodd" clip-rule="evenodd" d="M1.14023 19.1885C1.51762 19.3485 1.93714 19.38 2.33421 19.2783C2.65856 19.1949 2.95462 19.026 3.1915 18.7893C3.42838 18.5526 3.59737 18.2566 3.68094 17.9323C3.78293 17.5353 3.75161 17.1157 3.59184 16.7382C3.43207 16.3607 3.15271 16.0463 2.7967 15.8431C2.44069 15.6399 2.02786 15.5593 1.62159 15.6138C1.21533 15.6683 0.838186 15.8547 0.548261 16.1445C0.258336 16.4342 0.0716443 16.8114 0.0169469 17.2176C-0.0377506 17.6238 0.0426051 18.0368 0.245565 18.3929C0.448525 18.749 0.762837 19.0285 1.14023 19.1885ZM1.14088 11.7208C1.51805 11.8808 1.93732 11.9124 2.33421 11.8108C2.65856 11.7274 2.95462 11.5585 3.1915 11.3218C3.42838 11.0851 3.59737 10.7891 3.68094 10.4648C3.78278 10.068 3.75141 9.64873 3.59165 9.27147C3.4319 8.8942 3.15265 8.57973 2.79679 8.37671C2.44094 8.17369 2.02821 8.09335 1.62216 8.14781C1.2161 8.20227 0.839166 8.38867 0.549388 8.67828C0.259609 8.96789 0.0730497 9.34465 0.0183552 9.75067C-0.0363393 10.1567 0.0438778 10.5694 0.246692 10.9254C0.449506 11.2814 0.763714 11.5609 1.14088 11.7208ZM1.14032 4.25445C1.51771 4.41436 1.93718 4.44582 2.33421 4.34402C2.65862 4.2605 2.95472 4.09154 3.19159 3.85467C3.42847 3.6178 3.59742 3.32169 3.68094 2.99728C3.78274 2.60025 3.75128 2.18079 3.59137 1.8034C3.43146 1.42601 3.15201 1.11166 2.79595 0.908641C2.43989 0.705623 2.02697 0.625146 1.62075 0.679741C1.21453 0.734336 0.837521 0.92095 0.547698 1.21077C0.257874 1.5006 0.0712602 1.87751 0.0166652 2.28373C-0.0379298 2.68995 0.042453 3.10296 0.245471 3.45902C0.448489 3.81508 0.76293 4.09454 1.14032 4.25445ZM7.54435 18.7968H18.6713C18.8644 18.7958 19.055 18.7527 19.2298 18.6706C19.4046 18.5886 19.5595 18.4694 19.6836 18.3216C19.8078 18.1737 19.8983 18.0005 19.9489 17.8142C19.9995 17.6278 20.0089 17.4328 19.9766 17.2424C19.9112 16.9255 19.7369 16.6416 19.484 16.4398C19.2311 16.2381 18.9156 16.1312 18.5921 16.1379H7.46736C7.27407 16.1386 7.08334 16.1814 6.90826 16.2633C6.73318 16.3452 6.57798 16.4643 6.45356 16.6122C6.32913 16.7601 6.23838 16.9335 6.18766 17.12C6.13695 17.3065 6.12749 17.5018 6.15987 17.6923C6.22523 18.0092 6.39951 18.2931 6.65241 18.4949C6.90531 18.6966 7.2209 18.8035 7.54435 18.7968ZM7.5451 11.3301H18.6713C18.8646 11.3292 19.0553 11.2864 19.2303 11.2044C19.4052 11.1225 19.5603 11.0033 19.6847 10.8554C19.809 10.7075 19.8997 10.5343 19.9504 10.3478C20.0011 10.1613 20.0105 9.96614 19.9781 9.77565C19.9129 9.45865 19.7387 9.17444 19.4858 8.97252C19.2329 8.77061 18.9173 8.66376 18.5937 8.67039H7.46821C7.27492 8.67112 7.08409 8.71391 6.90901 8.79583C6.73393 8.87774 6.57873 8.9968 6.45431 9.14472C6.32988 9.29264 6.23923 9.46595 6.18851 9.65246C6.13779 9.83898 6.12824 10.0342 6.16062 10.2248C6.22582 10.5418 6.40006 10.826 6.65298 11.0279C6.90589 11.2298 7.22154 11.3367 7.5451 11.3301ZM7.5466 3.86256H18.6713C18.8648 3.86216 19.0559 3.81964 19.2313 3.73787C19.4067 3.65611 19.5621 3.53713 19.6867 3.38917C19.8114 3.24121 19.9023 3.06773 19.9532 2.88105C20.0041 2.69436 20.0136 2.49889 19.9812 2.30814C19.9158 1.99129 19.7415 1.70734 19.4886 1.50558C19.2357 1.30382 18.9202 1.19697 18.5968 1.20364H7.46971C7.27642 1.20437 7.08559 1.24716 6.91051 1.32907C6.73543 1.41099 6.58033 1.53004 6.4559 1.67796C6.33148 1.82588 6.24073 1.99919 6.19001 2.18571C6.13929 2.37223 6.12984 2.56749 6.16222 2.75805C6.22758 3.07491 6.40176 3.35885 6.65467 3.56061C6.90757 3.76237 7.22315 3.86923 7.5466 3.86256Z" fill="#333333"/>
</svg>
