<svg width="54" height="54" viewBox="0 0 54 54" fill="none" xmlns="http://www.w3.org/2000/svg">
<path d="M26.6659 53.2625C41.2577 53.2625 53.0867 41.4335 53.0867 26.8416C53.0867 12.2498 41.2577 0.420822 26.6659 0.420822C12.0741 0.420822 0.245056 12.2498 0.245056 26.8416C0.245056 41.4335 12.0741 53.2625 26.6659 53.2625Z" fill="#CCCCD6"/>
<path d="M37.2342 34.7679C37.9343 34.7658 38.6051 34.4867 39.1001 33.9917C39.5952 33.4967 39.8742 32.8259 39.8763 32.1258V18.9154C39.8742 18.2153 39.5952 17.5445 39.1001 17.0495C38.6051 16.5545 37.9343 16.2754 37.2342 16.2733H16.0976C15.3975 16.2754 14.7267 16.5545 14.2317 17.0495C13.7367 17.5445 13.4576 18.2153 13.4555 18.9154V32.1258C13.4576 32.8259 13.7367 33.4967 14.2317 33.9917C14.7267 34.4867 15.3975 34.7658 16.0976 34.7679H10.8134V37.41H42.5184V34.7679H37.2342ZM16.0976 18.9154H37.2342V32.1258H16.0976V18.9154Z" fill="#333333"/>
</svg>
