<svg width="60" height="60" viewBox="0 0 60 60" fill="none" xmlns="http://www.w3.org/2000/svg">
<path d="M30 60C46.5685 60 60 46.5685 60 30C60 13.4315 46.5685 0 30 0C13.4315 0 0 13.4315 0 30C0 46.5685 13.4315 60 30 60Z" fill="#CCCCD6"/>
<path d="M35.4541 15H24.5452C24.0077 14.9993 23.4754 15.1047 22.9788 15.3101C22.4821 15.5154 22.0309 15.8168 21.6509 16.1968C21.2709 16.5768 20.9695 17.028 20.7642 17.5247C20.5588 18.0213 20.4534 18.5536 20.4541 19.0911V40.9089C20.4534 41.4464 20.5588 41.9787 20.7642 42.4753C20.9695 42.972 21.2709 43.4232 21.6509 43.8032C22.0309 44.1832 22.4821 44.4846 22.9788 44.6899C23.4754 44.8953 24.0077 45.0007 24.5452 45H35.4541C35.9916 45.0008 36.5239 44.8955 37.0206 44.6902C37.5173 44.4849 37.9686 44.1835 38.3486 43.8035C38.7287 43.4234 39.03 42.9723 39.2354 42.4756C39.4407 41.9789 39.546 41.4464 39.5452 40.9089V19.0911C39.546 18.5536 39.4407 18.0211 39.2354 17.5244C39.03 17.0277 38.7287 16.5766 38.3486 16.1965C37.9686 15.8165 37.5173 15.5151 37.0206 15.3098C36.5239 15.1045 35.9916 14.9992 35.4541 15ZM32.7272 42.273H27.2731V40.9089H32.7272V42.273ZM37.1592 38.1819H22.8411V19.0911H37.1592V38.1819Z" fill="#333333"/>
</svg>
