<svg width="86" height="86" viewBox="0 0 86 86" fill="none" xmlns="http://www.w3.org/2000/svg">
<g filter="url(#filter0_d_1196_1016)">
<path d="M43 73C59.5685 73 73 59.5685 73 43C73 26.4315 59.5685 13 43 13C26.4315 13 13 26.4315 13 43C13 59.5685 26.4315 73 43 73Z" fill="white"/>
</g>
<path d="M44.3333 43.3333C46.5329 43.3333 48.4762 41.2621 48.6666 38.7158C48.7612 37.4367 48.36 36.2437 47.5366 35.3575C46.7221 34.4821 45.5833 34 44.3333 34C43.0733 34 41.9337 34.4792 41.125 35.3492C40.3071 36.2287 39.9083 37.4242 40 38.715C40.1871 41.2617 42.13 43.3333 44.3333 43.3333ZM52.9741 50.99C52.6225 49.0391 51.5246 47.4004 49.7996 46.2504C48.2675 45.2291 46.3262 44.6666 44.3333 44.6666C42.3404 44.6666 40.3992 45.2291 38.8671 46.25C37.1421 47.4 36.0442 49.0387 35.6925 50.9896C35.6121 51.4366 35.7212 51.8787 35.9921 52.2025C36.1149 52.35 36.2692 52.4682 36.4435 52.5486C36.6179 52.6289 36.808 52.6692 37 52.6666H51.6666C51.8587 52.6694 52.049 52.6292 52.2235 52.5489C52.398 52.4687 52.5524 52.3505 52.6754 52.2029C52.9454 51.8791 53.0546 51.4371 52.9741 50.99ZM36.6667 44.6666V43H38.3333C38.5101 43 38.6797 42.9297 38.8047 42.8047C38.9298 42.6797 39 42.5101 39 42.3333C39 42.1565 38.9298 41.9869 38.8047 41.8619C38.6797 41.7369 38.5101 41.6667 38.3333 41.6667H36.6667V40C36.6667 39.8232 36.5964 39.6536 36.4714 39.5286C36.3464 39.4036 36.1768 39.3333 36 39.3333C35.8232 39.3333 35.6536 39.4036 35.5286 39.5286C35.4036 39.6536 35.3333 39.8232 35.3333 40V41.6667H33.6667C33.4899 41.6667 33.3203 41.7369 33.1953 41.8619C33.0702 41.9869 33 42.1565 33 42.3333C33 42.5101 33.0702 42.6797 33.1953 42.8047C33.3203 42.9297 33.4899 43 33.6667 43H35.3333V44.6666C35.3333 44.8435 35.4036 45.013 35.5286 45.1381C35.6536 45.2631 35.8232 45.3333 36 45.3333C36.1768 45.3333 36.3464 45.2631 36.4714 45.1381C36.5964 45.013 36.6667 44.8435 36.6667 44.6666Z" fill="#000033"/>
<defs>
<filter id="filter0_d_1196_1016" x="0.5" y="0.5" width="85" height="85" filterUnits="userSpaceOnUse" color-interpolation-filters="sRGB">
<feFlood flood-opacity="0" result="BackgroundImageFix"/>
<feColorMatrix in="SourceAlpha" type="matrix" values="0 0 0 0 0 0 0 0 0 0 0 0 0 0 0 0 0 0 127 0" result="hardAlpha"/>
<feOffset/>
<feGaussianBlur stdDeviation="6.25"/>
<feColorMatrix type="matrix" values="0 0 0 0 0.6 0 0 0 0 0.6 0 0 0 0 0.6 0 0 0 0.502 0"/>
<feBlend mode="normal" in2="BackgroundImageFix" result="effect1_dropShadow_1196_1016"/>
<feBlend mode="normal" in="SourceGraphic" in2="effect1_dropShadow_1196_1016" result="shape"/>
</filter>
</defs>
</svg>
