<svg width="40" height="40" viewBox="0 0 40 40" fill="none" xmlns="http://www.w3.org/2000/svg">
<path d="M20 40C31.0457 40 40 31.0457 40 20C40 8.95431 31.0457 0 20 0C8.95431 0 0 8.95431 0 20C0 31.0457 8.95431 40 20 40Z" fill="#CCCCD6"/>
<path d="M23.6361 10H16.3635C16.0052 9.99956 15.6503 10.0698 15.3192 10.2067C14.9881 10.3436 14.6873 10.5445 14.434 10.7979C14.1806 11.0512 13.9797 11.352 13.8428 11.6831C13.7059 12.0142 13.6357 12.3691 13.6361 12.7274V27.2726C13.6357 27.6309 13.7059 27.9858 13.8428 28.3169C13.9797 28.648 14.1806 28.9488 14.434 29.2022C14.6873 29.4555 14.9881 29.6564 15.3192 29.7933C15.6503 29.9302 16.0052 30.0004 16.3635 30H23.6361C23.9944 30.0005 24.3493 29.9303 24.6805 29.7935C25.0116 29.6566 25.3124 29.4557 25.5658 29.2023C25.8192 28.949 26.0201 28.6482 26.1569 28.3171C26.2938 27.9859 26.364 27.6309 26.3635 27.2726V12.7274C26.364 12.3691 26.2938 12.0141 26.1569 11.6829C26.0201 11.3518 25.8192 11.0511 25.5658 10.7977C25.3124 10.5443 25.0116 10.3434 24.6805 10.2065C24.3493 10.0697 23.9944 9.99948 23.6361 10ZM21.8182 28.182H18.1821V27.2726H21.8182V28.182ZM24.7728 25.4546H15.2274V12.7274H24.7728V25.4546Z" fill="#333333"/>
</svg>
