<svg width="80" height="80" viewBox="0 0 80 80" fill="none" xmlns="http://www.w3.org/2000/svg">
<path d="M40 80C62.0914 80 80 62.0914 80 40C80 17.9086 62.0914 0 40 0C17.9086 0 0 17.9086 0 40C0 62.0914 17.9086 80 40 80Z" fill="#CCE0FF"/>
<g opacity="0.6">
<path opacity="0.6" d="M30.0927 51.703L34.1111 28.911C34.4319 27.0981 35.4591 25.4866 36.9673 24.4306C38.4754 23.3746 40.341 22.9604 42.1543 23.279L42.7487 23.3846C42.4934 22.4637 41.9054 21.6704 41.0985 21.1584C40.2916 20.6464 39.3234 20.4522 38.3815 20.6134L23.1871 23.2926C22.1812 23.4731 21.2876 24.0443 20.7013 24.8814C20.1151 25.7185 19.884 26.7536 20.0583 27.7606L24.0775 50.5526C24.258 51.5585 24.8292 52.4521 25.6663 53.0383C26.5035 53.6245 27.5385 53.8557 28.5455 53.6814L30.0127 53.4222C29.968 52.848 29.9949 52.2705 30.0927 51.703Z" fill="#000033"/>
</g>
<path opacity="0.3" d="M52.1215 57.9022C51.9874 57.9021 51.8536 57.8903 51.7215 57.8671L36.5271 55.187C35.9244 55.0776 35.3891 54.7347 35.0377 54.2329C34.6863 53.7311 34.5471 53.1109 34.6503 52.507L38.6687 29.7158C38.768 29.1817 39.0499 28.6987 39.4661 28.3496C39.8824 28.0005 40.4071 27.807 40.9503 27.8022C41.0844 27.8024 41.2183 27.8141 41.3503 27.8374L56.5439 30.5174C57.1471 30.6263 57.6828 30.969 58.0346 31.4709C58.3864 31.9728 58.5257 32.5933 58.4223 33.1974L54.3999 55.9886C54.3008 56.5222 54.0193 57.0048 53.6037 57.3538C53.1882 57.7029 52.6642 57.8967 52.1215 57.9022Z" fill="#000033"/>
<path d="M40.9512 29.3456C40.9952 29.3457 41.0391 29.3497 41.0824 29.3576L56.2768 32.0368C56.4771 32.0746 56.6546 32.1893 56.7715 32.3563C56.8884 32.5232 56.9354 32.7293 56.9024 32.9304L52.88 55.7216C52.8453 55.8994 52.7507 56.0599 52.6119 56.1764C52.4732 56.2928 52.2987 56.3582 52.1176 56.3616C52.0736 56.3616 52.0297 56.3576 51.9864 56.3496L36.792 53.6704C36.5919 53.6322 36.4146 53.5175 36.2978 53.3506C36.181 53.1838 36.1338 52.9779 36.1664 52.7768L40.1848 29.9856C40.2197 29.8079 40.3143 29.6475 40.453 29.531C40.5917 29.4146 40.7662 29.3492 40.9472 29.3456H40.9512ZM40.9472 26.26C40.0408 26.2624 39.164 26.5827 38.4694 27.1651C37.7749 27.7475 37.3067 28.5551 37.1464 29.4472L33.1312 52.24C32.9568 53.2471 33.188 54.2823 33.7742 55.1195C34.3604 55.9568 35.254 56.5281 36.26 56.7088L51.4544 59.388C52.4618 59.5652 53.4984 59.3352 54.3364 58.7485C55.1743 58.1618 55.7451 57.2665 55.9232 56.2592L59.9416 33.4672C60.116 32.4602 59.8848 31.4251 59.2986 30.588C58.7124 29.7509 57.8187 29.1797 56.8128 28.9992L41.6184 26.32C41.3981 26.2813 41.1749 26.2618 40.9512 26.2616L40.9472 26.26Z" fill="#000033"/>
</svg>
