<svg width="30" height="30" viewBox="0 0 30 30" fill="none" xmlns="http://www.w3.org/2000/svg">
<path opacity="0.6" d="M7.57046 23.7762L10.5848 6.68261C10.8247 5.32261 11.595 4.1136 12.7263 3.32152C13.8575 2.52944 15.2571 2.21918 16.6171 2.45898L17.0626 2.53709C16.871 1.84662 16.4299 1.25185 15.8248 0.868012C15.2197 0.484169 14.4937 0.338567 13.7874 0.459408L2.38924 2.46881C1.63475 2.60415 0.964508 3.03254 0.524817 3.66042C0.0851257 4.28831 -0.0882312 5.06466 0.042573 5.81995L3.05695 22.9135C3.19229 23.668 3.62069 24.3383 4.24858 24.778C4.87646 25.2177 5.65279 25.391 6.40808 25.2602L7.50746 25.0664C7.47481 24.6354 7.49593 24.202 7.57046 23.7762Z" fill="#757575"/>
<path opacity="0.3" d="M24.0929 28.4274C23.9924 28.4272 23.8921 28.4183 23.7932 28.4008L12.3952 26.3908C11.943 26.309 11.5413 26.0519 11.2776 25.6755C11.0139 25.2991 10.9094 24.8339 10.9869 24.3809L14.0007 7.2873C14.0402 7.0627 14.1235 6.84809 14.2459 6.65572C14.3684 6.46335 14.5275 6.297 14.7143 6.16616C14.9011 6.03533 15.1118 5.94258 15.3344 5.89321C15.5571 5.84385 15.7873 5.83883 16.0119 5.87846L27.4099 7.88844C27.8622 7.97017 28.2639 8.22718 28.5278 8.60359C28.7916 8.97999 28.8962 9.44534 28.8187 9.89843L25.8044 26.992C25.7299 27.3926 25.5184 27.7549 25.2062 28.0168C24.8939 28.2787 24.5004 28.4238 24.0929 28.4274Z" fill="#757575"/>
<path d="M15.7151 7.00768C15.7481 7.0077 15.7811 7.01061 15.8136 7.01636L27.2116 9.02576C27.3615 9.05465 27.4942 9.14072 27.5818 9.26577C27.6694 9.39081 27.7049 9.54501 27.6808 9.69576L24.664 26.7899C24.6376 26.9228 24.5666 27.0428 24.4626 27.1297C24.3586 27.2166 24.2279 27.2654 24.0924 27.2678C24.0594 27.2677 24.0265 27.2648 23.9941 27.2591L12.5961 25.2497C12.446 25.221 12.3128 25.1349 12.2251 25.0097C12.1374 24.8845 12.102 24.7301 12.1263 24.5791L15.1406 7.48558C15.1671 7.35268 15.2382 7.23283 15.3422 7.1459C15.4462 7.05898 15.5768 7.01021 15.7123 7.00768H15.7151ZM15.7123 4.69336C15.0324 4.69512 14.3747 4.93537 13.8538 5.37223C13.3329 5.8091 12.9818 6.41489 12.8616 7.08405L9.84726 24.1776C9.71646 24.9329 9.88981 25.7092 10.3295 26.3371C10.7692 26.965 11.4394 27.3934 12.1939 27.5287L23.5919 29.5381C23.9661 29.6042 24.3496 29.5958 24.7205 29.5136C25.0915 29.4314 25.4427 29.277 25.754 29.059C26.0652 28.8411 26.3304 28.564 26.5345 28.2436C26.7387 27.9231 26.8777 27.5656 26.9436 27.1914L29.9576 10.0979C30.0885 9.34257 29.9152 8.56613 29.4755 7.93821C29.0357 7.31029 28.3653 6.88193 27.6108 6.74674L16.2128 4.73733C16.0475 4.70821 15.8801 4.6935 15.7123 4.69336Z" fill="#757575"/>
</svg>
