<svg width="30" height="31" viewBox="0 0 30 31" fill="none" xmlns="http://www.w3.org/2000/svg">
<rect y="0.464844" width="30" height="30" rx="15" fill="#E86826"/>
<path d="M12.28 20.1248L14.8 18.6048L17.32 20.1448L16.66 17.2648L18.88 15.3448L15.96 15.0848L14.8 12.3648L13.64 15.0648L10.72 15.3248L12.94 17.2648L12.28 20.1248ZM9.85999 23.4648L11.16 17.8448L6.79999 14.0648L12.56 13.5648L14.8 8.26484L17.04 13.5648L22.8 14.0648L18.44 17.8448L19.74 23.4648L14.8 20.4848L9.85999 23.4648ZM19 12.2648L19.42 10.4848L18 9.30484L19.88 9.14484L20.6 7.46484L21.32 9.14484L23.2 9.30484L21.78 10.4848L22.2 12.2648L20.6 11.3248L19 12.2648Z" fill="white"/>
</svg>



