<svg width="70" height="60" viewBox="0 0 70 60" fill="none" xmlns="http://www.w3.org/2000/svg">
<circle cx="40" cy="30" r="29.5" fill="white" stroke="#CCCCD6"/>
<path d="M39.9237 26.7969C39.0812 26.7969 38.2577 27.0467 37.5573 27.5147C36.8568 27.9827 36.3108 28.648 35.9884 29.4263C35.666 30.2046 35.5816 31.061 35.7459 31.8872C35.9102 32.7135 36.3158 33.4724 36.9115 34.0681C37.5071 34.6639 38.266 35.0696 39.0922 35.234C39.9185 35.3985 40.7749 35.3142 41.5533 34.9919C42.3316 34.6697 42.9969 34.1239 43.4651 33.4235C43.9332 32.7231 44.1831 31.8996 44.1832 31.0572C44.1832 29.9274 43.7345 28.8438 42.9357 28.0449C42.1369 27.246 41.0534 26.7971 39.9237 26.7969V26.7969Z" fill="#333333"/>
<path d="M51.8626 20.1119H45.1974L44.1467 18.536C44.0291 18.379 43.8786 18.2497 43.7057 18.1571C43.5328 18.0645 43.3417 18.0109 43.1459 18H36.7021C36.5059 18.0109 36.3144 18.0645 36.141 18.1572C35.9677 18.2499 35.8167 18.3795 35.6986 18.5366L34.6487 20.1119H27.9847C27.1935 20.113 26.4349 20.4278 25.8754 20.9873C25.3159 21.5468 25.0011 22.3054 25 23.0967V39.0153C25.0012 39.8065 25.3161 40.5649 25.8756 41.1244C26.435 41.6839 27.1935 41.9988 27.9847 42H51.8626C52.654 41.9991 53.4127 41.6843 53.9722 41.1248C54.5318 40.5652 54.8465 39.8066 54.8474 39.0153V23.0967C54.8474 22.3051 54.5329 21.5458 53.9732 20.986C53.4134 20.4263 52.6542 20.1119 51.8626 20.1119ZM29.631 25.94C29.2985 25.9399 28.9734 25.8412 28.697 25.6563C28.4206 25.4715 28.2052 25.209 28.078 24.9017C27.9509 24.5945 27.9177 24.2564 27.9826 23.9303C28.0476 23.6042 28.2078 23.3045 28.4429 23.0695C28.6781 22.8344 28.9777 22.6744 29.3038 22.6096C29.63 22.5447 29.9681 22.578 30.2753 22.7053C30.5825 22.8326 30.845 23.0482 31.0297 23.3247C31.2144 23.6012 31.313 23.9262 31.313 24.2587C31.313 24.4795 31.2695 24.6982 31.185 24.9022C31.1005 25.1062 30.9765 25.2918 30.8203 25.4479C30.6641 25.6041 30.4787 25.7278 30.2746 25.8123C30.0706 25.8967 29.8519 25.9401 29.631 25.94ZM39.9237 38.021C38.5463 38.021 37.1998 37.6126 36.0545 36.8473C34.9092 36.0821 34.0166 34.9943 33.4895 33.7217C32.9623 32.4491 32.8244 31.0488 33.0931 29.6978C33.3619 28.3469 34.0252 27.1061 34.9992 26.1321C35.9732 25.1581 37.214 24.4947 38.565 24.226C39.916 23.9573 41.3163 24.0953 42.5889 24.6224C43.8614 25.1495 44.9491 26.0421 45.7144 27.1874C46.4796 28.3327 46.8881 29.6792 46.8881 31.0566C46.8881 32.9037 46.1543 34.6751 44.8482 35.9811C43.5421 37.2872 41.7708 38.021 39.9237 38.021Z" fill="#333333"/>
<g clip-path="url(#clip0_607_273)">
<path d="M10.0068 40C8.62775 40 7.33192 39.7375 6.11925 39.2125C4.90642 38.6875 3.84583 37.9708 2.9375 37.0625C2.02917 36.1542 1.3125 35.093 0.7875 33.879C0.2625 32.665 0 31.3678 0 29.9875C0 28.6072 0.2625 27.31 0.7875 26.096C1.3125 24.882 2.02917 23.825 2.9375 22.925C3.84583 22.025 4.907 21.3125 6.121 20.7875C7.335 20.2625 8.63217 20 10.0125 20C11.3928 20 12.69 20.2625 13.904 20.7875C15.118 21.3125 16.175 22.025 17.075 22.925C17.975 23.825 18.6875 24.8833 19.2125 26.1C19.7375 27.3167 20 28.6144 20 29.9932C20 31.3723 19.7375 32.6681 19.2125 33.8807C18.6875 35.0936 17.975 36.1527 17.075 37.058C16.175 37.9632 15.1167 38.6798 13.9 39.208C12.6833 39.736 11.3856 40 10.0068 40Z" fill="white"/>
<path d="M16.025 36.0125C14.375 37.6708 12.3708 38.5 10.0125 38.5C7.65417 38.5 5.64583 37.6708 3.9875 36.0125C2.32917 34.3542 1.5 32.35 1.5 30C1.5 27.627 2.32917 25.6171 3.9875 23.9703C5.64583 22.3234 7.65 21.5 10 21.5C12.373 21.5 14.3829 22.325 16.0297 23.975C17.6766 25.625 18.5 27.6292 18.5 29.9875C18.5 32.3458 17.675 34.3542 16.025 36.0125Z" fill="#CCCCD6"/>
<path d="M10.8254 35.0015H9.3254V30.8515H5.0004V29.3515H9.3254V25.0015H10.8254V29.3515H15.0004V30.8515H10.8254V35.0015Z" fill="white"/>
</g>
<defs>
<clipPath id="clip0_607_273">
<rect width="20" height="20" fill="white" transform="translate(0 20)"/>
</clipPath>
</defs>
</svg>
