<svg width="106" height="106" viewBox="0 0 106 106" fill="none" xmlns="http://www.w3.org/2000/svg">
<g filter="url(#filter0_d_2823_1503)">
<rect x="13" y="13" width="80" height="80" rx="40" fill="white"/>
<path d="M51.116 57.984C50.9453 57.984 50.796 57.9307 50.668 57.824C50.54 57.696 50.476 57.536 50.476 57.344C50.476 57.1733 50.476 57.0027 50.476 56.832C50.476 56.6613 50.476 56.4907 50.476 56.32C50.5613 55.488 50.7853 54.752 51.148 54.112C51.532 53.4507 51.9693 52.8533 52.46 52.32C52.972 51.7653 53.4733 51.2427 53.964 50.752C54.476 50.2613 54.9027 49.7813 55.244 49.312C55.6067 48.8213 55.82 48.32 55.884 47.808C55.948 47.1893 55.82 46.6667 55.5 46.24C55.2013 45.8133 54.7853 45.4933 54.252 45.28C53.74 45.0453 53.196 44.928 52.62 44.928C51.6173 44.928 50.796 45.1733 50.156 45.664C49.516 46.1547 49.0787 46.944 48.844 48.032C48.78 48.288 48.6733 48.48 48.524 48.608C48.3747 48.7147 48.172 48.768 47.916 48.768H45.196C45.004 48.768 44.8333 48.704 44.684 48.576C44.556 48.4267 44.492 48.2347 44.492 48C44.5133 47.1467 44.7053 46.3253 45.068 45.536C45.452 44.7253 45.996 44 46.7 43.36C47.4253 42.72 48.3 42.2187 49.324 41.856C50.348 41.472 51.5213 41.28 52.844 41.28C54.2947 41.28 55.5107 41.472 56.492 41.856C57.4947 42.2187 58.284 42.6987 58.86 43.296C59.4573 43.8933 59.884 44.544 60.14 45.248C60.396 45.9307 60.5133 46.6027 60.492 47.264C60.4493 48.0747 60.268 48.8 59.948 49.44C59.628 50.08 59.2333 50.6773 58.764 51.232C58.2947 51.7653 57.8147 52.2987 57.324 52.832C56.8333 53.344 56.396 53.8667 56.012 54.4C55.6493 54.9333 55.404 55.4987 55.276 56.096C55.2333 56.288 55.2013 56.48 55.18 56.672C55.1587 56.8427 55.1373 57.0133 55.116 57.184C55.0307 57.44 54.924 57.6427 54.796 57.792C54.668 57.92 54.4867 57.984 54.252 57.984H51.116ZM51.02 64C50.8067 64 50.6253 63.9253 50.476 63.776C50.3267 63.6267 50.252 63.4453 50.252 63.232V60.448C50.252 60.2133 50.3267 60.0213 50.476 59.872C50.6253 59.7227 50.8067 59.648 51.02 59.648H54.124C54.3587 59.648 54.5507 59.7227 54.7 59.872C54.8493 60.0213 54.924 60.2133 54.924 60.448V63.232C54.924 63.4453 54.8493 63.6267 54.7 63.776C54.5507 63.9253 54.3587 64 54.124 64H51.02Z" fill="#757575"/>
</g>
<defs>
<filter id="filter0_d_2823_1503" x="0.5" y="0.5" width="105" height="105" filterUnits="userSpaceOnUse" color-interpolation-filters="sRGB">
<feFlood flood-opacity="0" result="BackgroundImageFix"/>
<feColorMatrix in="SourceAlpha" type="matrix" values="0 0 0 0 0 0 0 0 0 0 0 0 0 0 0 0 0 0 127 0" result="hardAlpha"/>
<feOffset/>
<feGaussianBlur stdDeviation="6.25"/>
<feColorMatrix type="matrix" values="0 0 0 0 0.6 0 0 0 0 0.6 0 0 0 0 0.6 0 0 0 0.502 0"/>
<feBlend mode="normal" in2="BackgroundImageFix" result="effect1_dropShadow_2823_1503"/>
<feBlend mode="normal" in="SourceGraphic" in2="effect1_dropShadow_2823_1503" result="shape"/>
</filter>
</defs>
</svg>
