<svg width="24" height="24" viewBox="0 -0.5 24 24" fill="none" xmlns="http://www.w3.org/2000/svg">
<path d="M8.71642 23L8.23881 19.32C7.9801 19.2242 7.73632 19.1092 7.50746 18.975C7.27861 18.8408 7.05473 18.6971 6.83582 18.5438L3.28358 19.9813L0 14.5188L3.07463 12.2762C3.05473 12.1421 3.04478 12.0127 3.04478 11.8881V11.1119C3.04478 10.9873 3.05473 10.8579 3.07463 10.7238L0 8.48125L3.28358 3.01875L6.83582 4.45625C7.05473 4.30292 7.28358 4.15917 7.52239 4.025C7.76119 3.89083 8 3.77583 8.23881 3.68L8.71642 0H15.2836L15.7612 3.68C16.0199 3.77583 16.2637 3.89083 16.4925 4.025C16.7214 4.15917 16.9453 4.30292 17.1642 4.45625L20.7164 3.01875L24 8.48125L20.9254 10.7238C20.9453 10.8579 20.9552 10.9873 20.9552 11.1119V11.8881C20.9552 12.0127 20.9353 12.1421 20.8955 12.2762L23.9701 14.5188L20.6866 19.9813L17.1642 18.5438C16.9453 18.6971 16.7164 18.8408 16.4776 18.975C16.2388 19.1092 16 19.2242 15.7612 19.32L15.2836 23H8.71642ZM10.806 20.7H13.1642L13.5821 17.6525C14.199 17.4992 14.7711 17.274 15.2985 16.9769C15.8259 16.6798 16.3085 16.3204 16.7463 15.8988L19.7015 17.0775L20.8657 15.1225L18.2985 13.2537C18.398 12.9854 18.4677 12.7027 18.5075 12.4056C18.5473 12.1085 18.5672 11.8067 18.5672 11.5C18.5672 11.1933 18.5473 10.8915 18.5075 10.5944C18.4677 10.2973 18.398 10.0146 18.2985 9.74625L20.8657 7.8775L19.7015 5.9225L16.7463 7.13C16.3085 6.68917 15.8259 6.32021 15.2985 6.02313C14.7711 5.72604 14.199 5.50083 13.5821 5.3475L13.194 2.3H10.8358L10.4179 5.3475C9.80099 5.50083 9.22886 5.72604 8.70149 6.02313C8.17413 6.32021 7.69154 6.67958 7.25373 7.10125L4.29851 5.9225L3.13433 7.8775L5.70149 9.7175C5.60199 10.005 5.53234 10.2925 5.49254 10.58C5.45274 10.8675 5.43284 11.1742 5.43284 11.5C5.43284 11.8067 5.45274 12.1038 5.49254 12.3913C5.53234 12.6788 5.60199 12.9663 5.70149 13.2537L3.13433 15.1225L4.29851 17.0775L7.25373 15.87C7.69154 16.3108 8.17413 16.6798 8.70149 16.9769C9.22886 17.274 9.80099 17.4992 10.4179 17.6525L10.806 20.7ZM12.0597 15.525C13.2139 15.525 14.199 15.1321 15.0149 14.3463C15.8308 13.5604 16.2388 12.6117 16.2388 11.5C16.2388 10.3883 15.8308 9.43958 15.0149 8.65375C14.199 7.86792 13.2139 7.475 12.0597 7.475C10.8856 7.475 9.89552 7.86792 9.08955 8.65375C8.28358 9.43958 7.8806 10.3883 7.8806 11.5C7.8806 12.6117 8.28358 13.5604 9.08955 14.3463C9.89552 15.1321 10.8856 15.525 12.0597 15.525Z" fill="currentColor"/>
</svg>
