<svg width="29" height="30" viewBox="0 0 29 30" fill="none" xmlns="http://www.w3.org/2000/svg">
<g clip-path="url(#clip0_107_1548)">
<path d="M23.9287 9.42867C26.5323 9.42867 28.643 7.31799 28.643 4.71433C28.643 2.11068 26.5323 0 23.9287 0C21.325 0 19.2143 2.11068 19.2143 4.71433C19.2143 7.31799 21.325 9.42867 23.9287 9.42867Z" fill="black"/>
<path d="M23.9287 30C26.5323 30 28.643 27.8893 28.643 25.2856C28.643 22.682 26.5323 20.5713 23.9287 20.5713C21.325 20.5713 19.2143 22.682 19.2143 25.2856C19.2143 27.8893 21.325 30 23.9287 30Z" fill="black"/>
<path d="M5.07133 19.7143C7.67498 19.7143 9.78566 17.6036 9.78566 15C9.78566 12.3963 7.67498 10.2856 5.07133 10.2856C2.46767 10.2856 0.356995 12.3963 0.356995 15C0.356995 17.6036 2.46767 19.7143 5.07133 19.7143Z" fill="black"/>
<path d="M23.9273 26.5721C23.7193 26.5721 23.5083 26.5214 23.313 26.4148L4.45566 16.1288C4.04266 15.9034 3.78566 15.4704 3.78566 15.0001C3.78566 14.5298 4.04266 14.0964 4.45566 13.8714L23.3127 3.58578C23.936 3.24544 24.7167 3.47578 25.057 4.09878C25.397 4.72211 25.167 5.50278 24.544 5.84311L7.75633 15.0001L24.5443 24.1571C25.1677 24.4974 25.3973 25.2784 25.0573 25.9014C24.8237 26.3291 24.3827 26.5714 23.9273 26.5721Z" fill="black"/>
</g>
<defs>
<clipPath id="clip0_107_1548">
<rect width="28.6667" height="30" fill="white" transform="translate(0.166656)"/>
</clipPath>
</defs>
</svg>
