<svg width="360" height="640" viewBox="0 0 360 640" fill="none" xmlns="http://www.w3.org/2000/svg">
<g clip-path="url(#clip0_19_7535)">
<path d="M506.102 720.685C504.436 700.586 499.682 680.997 494.758 661.507C487.701 633.598 488.775 606.221 498.363 579.011C500.518 572.903 501.353 566.177 501.854 559.666C502.937 545.59 499.267 532.208 494.985 518.945C487.743 496.528 482.026 473.754 479.693 450.226C477.32 426.312 473.663 402.63 465.625 379.873C454.063 347.134 446.158 313.7 444.616 278.83C443.794 260.222 439.529 242.275 429.598 226.266C414.301 201.602 397.198 178.211 376.625 157.683C350.092 131.215 324.595 103.854 300.91 74.7841C287.125 57.8614 271.897 42.3446 254.716 28.7395C238.238 15.6917 223.344 0.916491 209.212 -14.6774C199.86 -24.9991 189.959 -34.8535 179.947 -44.5408C171.956 -52.2692 162.411 -57.3314 151.17 -58.7674C144.994 -59.5561 138.828 -60.4262 132.683 -61.4078C112.367 -64.644 92.9984 -70.795 74.7215 -80.3366C62.6753 -86.6247 50.5435 -92.7543 38.4502 -98.9567C38.326 -98.7295 38.2018 -98.4981 38.0819 -98.2709C32.866 -100.195 27.7486 -102.484 22.4129 -103.972C6.4355 -108.434 -8.98944 -107.504 -22.4445 -96.8092C-33.5786 -87.9578 -40.199 -75.9173 -43.4664 -62.1922C-47.0979 -46.9241 -43.4022 -32.6503 -36.4177 -19.0667C-32.1311 -10.734 -28.6025 -2.18259 -26.9581 7.10176C-24.4829 21.0797 -27.8574 33.3989 -36.9231 44.3077C-44.8197 53.8064 -55.1015 59.9017 -65.893 65.3711C-76.3119 70.652 -87.0434 75.4356 -96.987 81.5094C-116.176 93.2328 -128.402 110.464 -133.579 132.402C-138.508 153.281 -135.678 173.577 -127.344 193.059C-118.947 212.691 -109.693 231.949 -101.393 251.62C-96.0063 264.393 -95.9378 277.651 -100.301 290.965C-104.207 302.885 -111.204 312.915 -118.972 322.44C-132.779 339.362 -140.534 358.96 -142.594 380.328C-145.973 415.369 -148.358 450.513 -150.559 485.653C-151.779 505.135 -145.21 521.762 -128.599 533.133C-122.073 537.6 -114.819 540.982 -108.018 545.067C-95.7751 552.422 -83.1936 559.319 -71.5499 567.54C-55.9708 578.539 -49.2947 593.953 -53.7483 613.028C-55.4912 620.495 -57.9493 627.927 -61.1268 634.901C-69.1176 652.45 -82.8424 662.214 -102.344 662.951C-114.579 663.414 -126.822 663.56 -139.065 663.796C-145.549 663.92 -151.677 665.3 -157.226 668.742C-168.489 675.725 -173.611 686.308 -173.461 699.146C-173.17 724.016 -173.127 748.932 -171.457 773.725C-169.645 800.579 -169.534 827.245 -172.921 853.954C-174.934 869.848 -176.373 885.797 -175.448 901.871C-173.431 936.861 -162.853 969.588 -147.3 1000.49C-138.307 1018.36 -126.308 1034.72 -115.585 1051.7C-111.264 1058.55 -106.34 1064.93 -99.6677 1069.71C-90.632 1076.17 -81.6006 1075.63 -73.3143 1068.27C-66.6552 1062.35 -64.7196 1054.59 -65.8502 1046.28C-67.2077 1036.29 -68.8221 1026.25 -71.4857 1016.55C-77.2026 995.743 -83.7931 975.186 -89.7669 954.448C-93.4712 941.589 -95.4154 928.571 -92.9402 915.078C-89.4201 895.905 -79.1297 884.73 -60.1804 880.392C-49.8899 878.035 -39.4796 878.052 -29.0393 878.832C-18.3035 879.638 -7.58054 881.022 3.15954 881.185C24.3742 881.498 39.2253 871.296 47.6229 851.905C51.7768 842.316 55.3054 832.457 59.1981 822.757C62.4912 814.557 66.9234 806.979 75.2953 803.258C94.3988 794.763 113.678 794.004 132.747 803.558C137.77 806.074 141.466 810.009 143.778 815.196C148.078 824.845 152.818 834.317 156.608 844.163C166.355 869.462 180.508 892.038 197.521 912.964C207.187 924.851 216.86 936.737 224.427 950.166C235.279 969.421 238.345 989.267 230.007 1010.37C227.468 1016.79 225.686 1023.54 223.918 1030.24C220.312 1043.85 223.901 1054.28 235.172 1062.56C245.496 1070.14 256.001 1077.47 266.518 1084.78C279.018 1093.48 292.623 1095.33 306.091 1088.18C332.907 1073.95 347.163 1051.08 347.514 1020.71C347.643 1009.64 344.457 998.521 342.641 987.449C340.281 973.034 340.607 958.722 346.499 945.258C350.482 936.158 355.711 927.568 360.845 919.025C375.936 893.92 392.145 869.44 406.195 843.769C417.179 823.7 432.291 808.972 451.913 798.029C460.722 793.117 469.154 787.501 477.556 781.899C499.408 767.317 508.221 746.391 506.093 720.685H506.102Z" stroke="#050F77" stroke-opacity="0.05" stroke-width="2" stroke-linecap="round" stroke-linejoin="round"/>
<path d="M473.342 655.596C470.605 641.712 468.319 627.773 470.169 613.649C471.509 603.422 474.125 593.375 475.821 583.186C477.641 572.217 479.718 561.226 480.468 550.159C481.41 536.22 477.834 522.632 475.055 509.065C470.353 486.124 465.831 463.179 465.676 439.617C465.557 421.605 461.904 404.211 456.234 387.19C445.524 355.033 436.193 322.5 431.032 288.941C428.373 271.65 424.87 254.693 416.768 239.069C401.561 209.754 382.214 183.35 359.864 159.132C343.476 141.373 326.685 123.979 310.476 106.058C301.428 96.0532 293.398 85.1271 284.56 74.9212C270.822 59.0615 253.736 47.2353 236.306 35.9064C221.712 26.4163 207.602 16.3475 196.506 2.67816C190.503 -4.71588 184.67 -12.2471 178.739 -19.7011C166.41 -35.2094 150.249 -43.645 130.79 -46.7783C114.453 -49.4102 99.0279 -55.1454 84.2881 -62.7152C71.7923 -69.1319 59.2194 -75.4115 46.6807 -81.7511C46.5822 -81.5711 46.4837 -81.3953 46.3895 -81.2153C41.7346 -82.6684 37.0797 -84.1344 32.4206 -85.5789C20.9996 -89.1194 9.71995 -87.9793 -1.28135 -83.9715C-17.4771 -78.0691 -26.8682 -57.5629 -22.0207 -38.7885C-18.8432 -26.4737 -15.2203 -14.2746 -11.9058 -1.98973C-6.69421 17.3162 -10.1029 34.8605 -22.6715 50.5873C-29.7716 59.473 -38.5333 66.1298 -48.7167 70.9734C-61.5208 77.0644 -74.4064 82.9797 -87.1934 89.1049C-95.8266 93.237 -103.342 99.0065 -108.935 106.769C-124.317 128.12 -127.126 151.588 -119.533 176.445C-115.705 188.97 -108.177 199.664 -101.492 210.727C-90.8804 228.293 -81.2795 246.236 -76.7059 266.515C-73.2715 281.749 -73.6527 296.708 -80.5172 310.806C-84.564 319.122 -89.8827 326.867 -95.1028 334.544C-109.256 355.338 -116.938 378.077 -116.609 403.354C-116.519 410.169 -116.489 416.989 -116.138 423.792C-115.144 443.072 -114.258 462.361 -112.845 481.611C-111.585 498.752 -102.695 510.994 -87.5873 519.061C-69.0149 528.98 -49.5089 531.569 -28.8895 527.878C-23.027 526.828 -16.929 526.228 -11.0065 526.584C2.93248 527.411 12.1052 537.951 11.1417 551.968C10.8205 556.619 9.50586 561.471 7.49316 565.68C2.15738 576.838 -3.94066 587.622 -9.48627 598.685C-17.0831 613.846 -24.1061 629.26 -27.2665 646.084C-29.7417 659.257 -29.9601 672.459 -21.9607 683.886C-12.3383 697.633 -2.03931 710.925 8.41813 724.05C13.9809 731.032 20.1774 737.578 28.134 742.113C37.8977 747.676 48.6463 749.811 59.5406 751.568C88.9516 756.314 118.333 758.217 147.765 751.513C154.857 749.897 160.638 754.333 161.61 761.612C164.239 781.308 166.928 800.999 169.258 820.73C171.849 842.659 177.369 863.589 189.235 882.441C208.69 913.346 234.272 938.404 263.825 959.421C277.879 969.416 290.88 968.242 303.428 953.66C321.619 932.523 337.905 909.72 352.649 885.943C366.686 863.306 371.863 838.994 365.517 812.808C363.192 803.22 360.305 793.751 357.312 784.342C352.285 768.543 346.816 752.884 341.844 737.072C339.532 729.716 342.388 726.009 350.028 725.387C351.381 725.276 352.747 725.267 354.105 725.336C364.104 725.816 373.769 728.088 382.505 732.854C392.838 738.491 402.662 745.062 412.824 751.02C422.879 756.918 433.606 760.75 445.502 759.743C469.65 757.702 487.272 735.705 483.602 711.225C480.806 692.588 476.986 674.096 473.338 655.6L473.342 655.596ZM447.305 755.675C435.52 757.578 424.853 753.767 414.875 747.882C405.895 742.584 397.249 736.712 388.175 731.581C377.782 725.709 366.528 722.327 354.529 721.615C340.067 720.758 334.646 727.479 339.104 741.307C345.236 760.338 351.788 779.233 357.869 798.278C362.806 813.743 365.941 829.521 363.77 845.912C361.71 861.463 355.544 875.518 346.825 888.275C334.847 905.793 322.146 922.815 309.718 940.025C307.457 943.154 304.974 946.12 302.695 949.236C299.017 954.268 293.968 957.47 288.452 960.003C280.834 963.505 273.46 961.919 267.251 957.166C255.384 948.092 243.625 938.799 232.529 928.811C219.263 916.869 207.906 903.11 197.59 888.502C184.473 869.925 176.774 849.298 173.849 826.803C171.022 805.067 168.312 783.314 165.353 761.594C163.965 751.401 156.407 745.82 146.45 748.024C120.564 753.75 94.6428 753 68.6619 749.177C61.1507 748.071 53.6609 746.746 46.214 745.25C31.9238 742.378 21.0639 733.986 12.2337 722.892C2.06318 710.11 -7.85471 697.123 -17.5756 683.993C-26.5856 671.824 -26.1745 658.018 -23.1126 644.117C-18.9374 625.167 -10.574 607.884 -1.13574 591.09C4.31995 581.381 9.86127 571.737 13.2015 561.012C19.7534 539.987 7.31331 522.52 -14.6936 522.653C-22.4617 522.7 -30.2213 524.321 -37.9809 525.238C-58.6774 527.694 -77.3826 522.469 -94.105 510.253C-101.835 504.607 -106.627 496.785 -108.143 487.282C-109.213 480.569 -110.022 473.775 -110.369 466.986C-111.376 447.362 -112.082 427.718 -112.926 408.086C-114.121 380.302 -105.894 355.479 -89.6814 333.066C-85.7631 327.652 -82.0546 322.015 -78.9156 316.121C-69.3575 298.179 -69.1862 279.438 -74.432 260.162C-79.8791 240.149 -90.0711 222.498 -100.61 204.949C-106.742 194.739 -113.495 184.812 -116.694 173.123C-122.625 151.421 -120.454 130.76 -108.023 111.699C-102.524 103.263 -94.8116 97.1591 -85.3991 93.1427C-86.1528 93.7514 -86.915 94.3558 -87.6644 94.9687C-107.573 111.321 -118.549 131.93 -116.977 158.163C-116.198 171.142 -110.335 182.287 -103.124 192.853C-92.6919 208.134 -82.4229 223.527 -72.2052 238.949C-67.8587 245.507 -67.3405 252.996 -67.7645 260.604C-67.9101 263.214 -68.0428 265.825 -68.334 268.422C-69.4945 278.838 -67.4304 288.444 -62.0176 297.497C-59.8935 301.055 -58.369 305.118 -57.3242 309.147C-55.123 317.639 -58.1035 324.617 -64.2058 330.717C-71.9868 338.496 -79.8235 346.272 -86.9964 354.609C-106.862 377.696 -110.091 403.5 -98.0063 431.186C-89.9426 449.66 -78.8471 466.021 -62.2231 477.959C-49.6331 486.999 -35.3173 492.507 -20.7402 497.329C-10.9722 500.557 -1.63249 504.543 6.37546 511.17C19.1368 521.732 25.6117 535.817 29.1103 551.651C32.8274 568.483 31.2515 585.295 29.6242 602.183C28.2453 616.482 25.359 630.439 21.9289 644.357C20.7255 649.243 20.5585 654.49 20.6056 659.565C20.7084 670.577 25.9714 678.704 36.3004 682.395C44.0342 685.159 52.2221 686.784 60.3114 688.404C79.205 692.189 98.09 696.145 117.116 699.133C139.029 702.575 160.582 700.95 180.953 691.083C191.826 685.815 200.686 677.838 209.52 669.797C216.822 663.153 224.209 656.595 231.729 650.204C241.873 641.579 253.59 640.135 265.996 643.723C294.212 651.875 318.403 666.693 338.414 688.267C349.647 700.372 362.331 710.342 378.719 714.268C395.241 718.225 411.925 720.278 428.955 717.346C440.077 715.43 447.155 709.12 450.757 698.709C454.281 688.524 455.694 677.877 455.938 667.195C456.461 644.306 460.867 622.093 466.212 599.95C471.732 577.06 471.569 554.047 466.563 531.037C463.522 517.064 459.994 503.133 460.431 488.658C460.825 475.614 461.403 462.579 461.921 448.888C462.923 457.868 463.45 466.385 464.893 474.744C467.788 491.534 470.849 508.307 474.455 524.955C478.558 543.875 476.416 562.44 472.682 581.038C469.535 596.714 464.417 612.222 466.118 628.437C467.535 641.961 470.061 655.373 472.344 668.794C474.691 682.566 477.453 696.265 479.834 710.033C484.412 736.476 465.462 752.756 447.301 755.683L447.305 755.675Z" stroke="#050F77" stroke-opacity="0.05" stroke-width="2" stroke-linecap="round" stroke-linejoin="round"/>
<path d="M406.469 302.632C400.482 281.093 392.932 260.261 382.145 240.612C369.932 218.37 356.944 196.629 340.624 177.156C319.927 152.454 298.46 128.403 277.858 103.623C262.094 84.6599 242.554 72.015 219.228 64.6638C209.392 61.5605 199.765 57.7885 190.036 54.325C177.775 49.9615 167.108 43.4633 159.978 32.1043C156.295 26.2405 152.176 20.6382 148.716 14.6501C142.485 3.85693 134.755 -5.22167 122.885 -9.99244C103.426 -17.8108 85.29 -28.0639 67.9509 -39.8001C61.4674 -44.1894 54.3588 -47.0141 46.505 -47.8542C37.6449 -48.8015 30.7632 -45.2781 25.6287 -38.3256C21.6761 -32.9676 21.5433 -26.6365 22.3056 -20.3227C24.4082 -2.94988 29.6712 13.5699 35.5123 29.9868C39.0323 39.8842 45.1132 47.2911 53.7635 52.9363C66.3193 61.1319 70.4004 74.2182 64.2767 87.9776C56.2816 105.946 42.3083 117.052 23.4832 122.226C16.0662 124.266 12.0066 122.86 7.83987 116.388C1.51488 106.555 -7.55937 101.514 -19.0574 100.931C-32.7908 100.232 -46.1945 102.483 -59.3113 106.448C-66.8396 108.724 -74.0596 111.814 -80.1319 116.971C-96.9743 131.275 -97.5781 157.674 -81.5794 174.134C-72.5993 183.371 -61.3882 189.072 -49.8217 194.117C-40.9487 197.988 -34.1226 203.895 -29.4421 212.373C-23.1342 223.805 -16.8263 235.237 -10.3857 246.596C2.26429 268.911 21.6033 282.692 45.7684 290.034C56.3972 293.262 67.2186 295.855 77.903 298.907C81.1533 299.837 84.4207 301.008 87.3712 302.628C96.4669 307.626 101.263 316.027 104.565 325.474C110.196 341.587 109.973 357.837 105.31 374.086C101.066 388.879 88.7887 397.404 74.52 394.593C68.3277 393.375 62.3496 390.328 56.6798 387.34C43.3532 380.319 30.4762 372.415 17.0126 365.681C7.57437 360.961 -2.69467 358.231 -13.3791 357.532C-28.8297 356.525 -48.0359 370.576 -41.7752 392.385C-36.388 411.168 -24.7743 424.452 -6.8014 431.464C2.30711 435.018 12.0965 437.097 21.7532 438.91C35.7264 441.529 45.9354 448.713 52.2647 461.4C60.8765 478.675 64.5893 497.166 65.647 516.301C66.8589 538.303 67.9509 560.313 69.3255 582.303C70.2719 597.417 76.6654 610.061 87.838 620.19C101.092 632.201 116.679 639.826 134.049 643.637C156.959 648.665 177.844 644.473 195.581 628.446C204.167 620.687 212.621 612.732 220.59 604.348C232.718 591.587 247.093 587.571 263.666 592.612C293.411 601.652 321.953 613.512 348.105 630.632C372.193 646.406 395.866 642.75 414.19 620.49C421.65 611.429 426.921 601.18 431.495 588.012C438.154 571.587 440.209 552.319 438.107 532.568C436.111 513.793 434.325 495.019 436.625 476.15C437.914 465.554 439.704 455.018 440.856 444.409C443.245 422.428 438.423 401.206 431.473 380.816C422.643 354.9 413.792 329.011 406.46 302.636L406.469 302.632Z" stroke="#050F77" stroke-opacity="0.05" stroke-width="2" stroke-linecap="round" stroke-linejoin="round"/>
<path d="M370.51 252.803C360.07 226.909 346.563 202.527 328.745 180.885C310.42 158.635 291.715 136.697 273.036 114.742C256.536 95.3503 235.955 82.3753 211.353 75.6028C185.21 68.4016 159.104 60.9733 134.22 49.9958C127.993 47.2482 122.551 48.3756 117.634 52.0576C114.264 54.5823 111.237 57.8957 108.916 61.4277C103.563 69.5847 98.6466 78.0375 93.7091 86.4603C84.2066 102.671 74.2502 118.518 59.8487 130.987C51.6095 138.12 43.2975 145.171 35.1996 152.462C25.3246 161.344 16.6871 171.284 11.6083 183.762C0.204467 211.778 9.4029 244.127 33.795 261.997C45.5671 270.621 59.0693 274.985 73.2181 277.912C93.769 282.169 109.481 293.271 118.461 312.572C128.781 334.75 137.355 357.588 142.142 381.712C145.337 397.816 147.191 414.006 146.395 430.466C145.829 442.06 141.089 451.036 130.499 456.325C126.756 458.194 122.846 459.853 118.846 461.07C104.942 465.305 96.1243 474.65 91.0883 487.993C86.6475 499.764 84.0738 511.976 82.8148 524.449C81.1832 540.618 79.7829 556.799 82.3481 573.027C88.1806 609.937 122.709 631.536 151.311 631.571C167.421 631.588 180.495 625.128 191.663 613.992C202.677 603.01 213.687 592.029 224.757 581.107C231.193 574.754 238.94 571.797 247.98 572.954C251.787 573.438 255.641 574.077 259.281 575.247C278.611 581.471 297.839 588.021 317.187 594.185C332.085 598.934 346.996 603.726 362.121 607.64C371.182 609.984 380.599 609.719 389.447 605.591C403.026 599.26 410.396 587.678 414.117 578.604C419.663 563.961 420.793 553.19 419.581 542.191C418.112 528.869 416.078 515.602 414.995 502.254C414.387 494.744 414.335 486.973 415.586 479.579C417.496 468.297 420.476 457.17 423.495 446.107C428.527 427.662 428.206 409.526 421.637 391.528C414.164 371.043 406.824 350.511 399.3 330.048C389.819 304.252 380.783 278.277 370.51 252.803Z" stroke="#050F77" stroke-opacity="0.05" stroke-width="2" stroke-linecap="round" stroke-linejoin="round"/>
<path d="M9.49285 383.675C2.35849 375.728 -6.80997 371.485 -17.8798 373.328C-23.2498 374.219 -26.1875 377.55 -26.8598 382.908C-28.8211 398.455 -21.6911 410.336 -7.06265 415.759C-5.67945 416.269 -4.32623 416.886 -2.90878 417.272C9.75834 420.714 20.6569 410.452 17.1282 397.82C15.7151 392.754 12.9958 387.571 9.49713 383.675H9.49285ZM9.98532 409.329C6.31537 413.298 1.96023 413.491 -2.79744 412.175C-3.44835 411.995 -4.07356 411.712 -4.71163 411.477C-17.1561 406.847 -22.8002 398.064 -21.9523 384.682C-21.6825 380.43 -20.0295 378.446 -15.7686 378.056C-6.40743 377.203 0.958161 381.262 6.80782 388.176C8.80767 390.538 10.2422 393.491 11.4884 396.367C13.4369 400.868 13.7066 405.304 9.98958 409.329H9.98532Z" stroke="#050F77" stroke-opacity="0.05" stroke-width="2" stroke-linecap="round" stroke-linejoin="round"/>
<path d="M311.277 177.332C296.053 159.299 280.38 141.652 265.058 123.701C250.763 106.958 233.399 94.7802 212.33 88.4363C193.753 82.8425 174.851 78.6633 155.503 76.4215C139.633 74.5826 126.332 79.3405 115.326 90.4895C108.723 97.1806 102.839 104.587 96.5397 111.587C80.1384 129.813 63.6044 147.923 47.2759 166.213C38.3815 176.179 31.3542 187.302 29.3243 200.817C26.3267 220.8 31.7867 237.732 48.2736 250.222C58.23 257.766 70.0022 261.371 81.7614 264.865C99.5502 270.146 114.072 279.618 122.872 296.545C132.507 315.08 142.125 333.627 151.705 352.192C154.985 358.548 157.957 365.068 161.366 371.352C167.305 382.291 170.693 394.001 172.393 406.247C174.812 423.672 177.865 441.032 176.846 458.773C176.024 473.081 169.421 482.747 155.546 487.119C147.756 489.571 139.933 491.954 132.25 494.714C120.29 499.014 110.761 506.481 104.728 517.84C96.0901 534.094 93.8376 551.454 97.0793 569.444C99.5417 583.1 105.237 595.179 116.26 604.181C136.888 621.018 165.365 623.152 186.186 602.187C190.969 597.37 195.286 592.076 199.662 586.864C207.319 577.746 214.595 568.295 222.517 559.418C228.662 552.534 236.58 549.919 245.663 553.07C253.371 555.74 260.981 558.685 268.638 561.505L268.544 561.758C273.974 563.76 279.267 566.319 284.855 567.656C300.717 571.462 316.604 575.312 332.663 578.089C343.429 579.95 354.52 580.918 365.431 580.674C381.25 580.318 392.097 571.351 395.557 556.833C396.744 551.861 397.001 546.4 396.38 541.321C395.266 532.212 393.373 523.18 391.416 514.2C390.063 507.998 387.759 502.006 386.41 495.799C382.929 479.819 387.331 465.473 396.076 452.133C401.12 444.439 404.486 436.059 405.989 426.964C408.464 412.013 405.707 397.747 399.93 384.018C394.825 371.888 389.095 360.019 383.995 347.884C375.225 327.026 367.611 305.748 362.695 283.605C353.916 244.106 337.442 208.336 311.273 177.336L311.277 177.332Z" stroke="#050F77" stroke-opacity="0.05" stroke-width="2" stroke-linecap="round" stroke-linejoin="round"/>
<path d="M312.095 195.446C298.019 176.308 282.761 158.172 266.445 140.949C258.108 132.145 249.62 123.375 240.392 115.543C226.286 103.572 209.302 97.5449 191.213 94.5701C181.039 92.8941 170.855 90.4337 160.625 90.1423C142.909 89.6322 127.3 95.9075 115.553 109.577C96.7668 131.437 78.2971 153.572 59.8874 175.755C53.7765 183.119 50.2693 191.944 47.9911 201.194C43.9528 217.568 51.6739 234.993 66.5635 242.875C73.3724 246.48 80.4211 249.631 87.3371 253.038C93.5251 256.09 100.004 258.696 105.777 262.404C118.491 270.57 126.233 283.065 133.316 296.005C143.902 315.341 154.989 334.347 169.005 351.484C174.452 358.141 180.148 364.712 184.687 371.973C193.65 386.32 196.918 402.634 199.166 419.175C202.562 444.152 206.017 469.12 209.469 494.093C210.865 504.209 216.158 511.903 224.71 517.158C232.529 521.963 240.627 526.322 248.665 530.767C260.763 537.454 272.916 544.038 280.277 548.063C302.306 556.19 319.388 556.563 336.543 551.449C353.265 546.464 359.539 536.537 356.875 519.4C355.462 510.313 353.801 501.251 351.844 492.267C348.82 478.366 350.456 465.134 356.952 452.558C361.119 444.491 365.53 436.544 370.009 428.644C376.583 417.062 378.351 404.846 374.356 392.171C371.765 383.962 368.193 376.067 365.187 367.983C360.207 354.592 354.083 341.463 350.773 327.66C347.733 314.986 347.617 301.578 346.482 288.47C343.532 254.277 332.492 223.171 312.095 195.442V195.446Z" stroke="#050F77" stroke-opacity="0.05" stroke-width="2" stroke-linecap="round" stroke-linejoin="round"/>
<path d="M185.407 515.401C170.106 512.589 154.685 511.929 139.753 517.394C134.824 519.198 129.886 521.732 125.814 525.006C106.727 540.352 105.605 572.766 123.21 590.931C137.911 606.101 158.582 607.477 175.142 594.489C185.09 586.684 191.834 576.658 196.151 564.879C200.133 554.107 201.864 543.807 201.307 534.175C200.699 523.665 195.77 517.304 185.411 515.401H185.407Z" stroke="#050F77" stroke-opacity="0.05" stroke-width="2" stroke-linecap="round" stroke-linejoin="round"/>
<path d="M295.587 185.048C280.718 166.359 263.752 149.612 246.884 132.788C235.536 121.472 223.018 111.823 207.225 106.611C195.145 101.626 181.938 101.133 168.86 99.7567C158.698 98.6894 149.238 100.927 140.104 104.982C127.831 110.434 118.65 119.757 110.419 129.98C99.6017 143.422 89.2428 157.229 78.5669 170.782C73.5438 177.161 69.2614 183.886 66.3024 191.507C59.9517 207.855 63.703 222.459 77.7319 232.922C83.6115 237.307 90.005 241.049 96.3643 244.744C113.07 254.444 124.923 268.602 134.378 285.148C141.243 297.163 147.834 309.405 155.61 320.819C167.151 337.763 182.777 350.936 198.511 363.799C212.886 375.552 220.886 390.653 223.288 408.888C225.768 427.722 228.812 446.419 235.017 464.465C241.642 483.741 251.457 500.857 267.799 513.6C276.612 520.471 285.939 526.014 297.664 525.932C303.214 525.894 307.466 523.69 310.866 519.434C314.909 514.38 316.347 508.529 316.133 502.22C315.859 494.161 315.482 486.107 315.071 478.053C314.643 469.643 316.446 461.653 320.625 454.478C325.987 445.266 331.948 436.402 337.716 427.431C346.653 413.538 350.375 398.51 346.76 382.235C345.043 374.515 342.02 367.095 339.883 359.457C336.427 347.134 332.042 334.956 333.07 321.801C333.425 317.27 333.721 312.739 334.072 308.209C335.584 288.628 335.31 269.202 330.355 250.008C324.021 225.485 311.132 204.564 295.595 185.039L295.587 185.048Z" stroke="#050F77" stroke-opacity="0.05" stroke-width="2" stroke-linecap="round" stroke-linejoin="round"/>
<path d="M157.846 581.21C154.265 582.903 150.51 583.662 147.041 581.84C132.417 576.439 127.651 557.176 138.703 547.737C145.645 541.809 154.188 539.7 163.203 542.611C171.176 545.183 175.253 554.994 172.504 564.206C170.161 572.05 165.203 577.729 157.846 581.214V581.21Z" stroke="#050F77" stroke-opacity="0.05" stroke-width="2" stroke-linecap="round" stroke-linejoin="round"/>
</g>
<defs>
<clipPath id="clip0_19_7535">
<rect width="360" height="640" fill="white"/>
</clipPath>
</defs>
</svg>
