<svg width="56" height="56" viewBox="0 0 56 56" fill="none" xmlns="http://www.w3.org/2000/svg">
<g filter="url(#filter0_d_107_1737)">
<rect x="13" y="13" width="30" height="30" rx="15" fill="white"/>
<rect x="11.5" y="11.5" width="33" height="33" rx="16.5" stroke="#333333" stroke-width="3" stroke-miterlimit="10"/>
<path d="M23.8293 36.4461C23.6686 37.1164 24.0599 37.7949 24.7037 37.9621C24.8017 37.9879 24.8998 37.9992 24.9967 37.9992C25.5349 37.9992 26.0247 37.6203 26.1617 37.0528L27.1097 33.1087L25.1274 31.047L23.8293 36.4461ZM24.3886 28.7853L25.9345 22.5702C26.0168 22.2413 25.8166 21.9081 25.4868 21.8257C23.8387 21.4148 22.1684 22.4144 21.7564 24.0589L20.8073 27.892C20.725 28.2209 20.9252 28.5541 21.255 28.6365L23.6423 29.2322C23.9724 29.3142 24.3063 29.1142 24.3886 28.7853ZM34.6107 24.2499H34.0098C33.6778 24.2499 33.4088 24.5296 33.4088 24.8749V25.4999H32.1036L30.3466 23.6725C29.9301 23.2386 29.3753 22.9999 28.7856 22.9999C27.7708 22.9999 26.89 23.7147 26.6436 24.7389L25.6325 28.9467C25.5822 29.1561 25.5849 29.3755 25.6404 29.5835C25.6958 29.7915 25.802 29.9811 25.9488 30.1337L29.2022 33.5173V36.7496C29.2022 37.4399 29.7404 37.9996 30.4041 37.9996C31.0678 37.9996 31.606 37.4399 31.606 36.7496V33.5173C31.606 32.8497 31.3558 32.222 30.9017 31.7497L29.1432 29.9209C29.1488 29.9013 29.1616 29.8861 29.1665 29.8658L29.9136 26.7576L30.756 27.6338C30.9814 27.8682 31.2871 28.0002 31.6056 28.0002H33.4085V37.375C33.4085 37.7203 33.6774 38 34.0094 38H34.6104C34.9424 38 35.2113 37.7203 35.2113 37.375V24.8749C35.2117 24.5296 34.9428 24.2499 34.6107 24.2499ZM29.8031 21.7499C30.7988 21.7499 31.606 20.9105 31.606 19.875C31.606 18.8394 30.7988 18 29.8031 18C28.8074 18 28.0003 18.8394 28.0003 19.875C28.0003 20.9105 28.8074 21.7499 29.8031 21.7499Z" fill="#333333"/>
</g>
<defs>
<filter id="filter0_d_107_1737" x="0" y="0" width="56" height="56" filterUnits="userSpaceOnUse" color-interpolation-filters="sRGB">
<feFlood flood-opacity="0" result="BackgroundImageFix"/>
<feColorMatrix in="SourceAlpha" type="matrix" values="0 0 0 0 0 0 0 0 0 0 0 0 0 0 0 0 0 0 127 0" result="hardAlpha"/>
<feOffset/>
<feGaussianBlur stdDeviation="5"/>
<feColorMatrix type="matrix" values="0 0 0 0 0.6 0 0 0 0 0.6 0 0 0 0 0.6 0 0 0 0.5 0"/>
<feBlend mode="normal" in2="BackgroundImageFix" result="effect1_dropShadow_107_1737"/>
<feBlend mode="normal" in="SourceGraphic" in2="effect1_dropShadow_107_1737" result="shape"/>
</filter>
</defs>
</svg>
