<svg width="40" height="40" viewBox="0 0 40 40" fill="none" xmlns="http://www.w3.org/2000/svg">
<rect x="1.5" y="1.5" width="37" height="37" rx="18.5" fill="white"/>
<rect x="1.5" y="1.5" width="37" height="37" rx="18.5" stroke="black" stroke-width="3"/>
<g clip-path="url(#clip0_107_1594)">
<path d="M14.7859 30.5581C14.585 31.396 15.0742 32.2441 15.8789 32.4531C16.0015 32.4854 16.124 32.4995 16.2451 32.4995C16.9179 32.4995 17.5302 32.0259 17.7015 31.3164L18.8865 26.3862L16.4085 23.8091L14.7859 30.5581ZM15.485 20.9819L17.4175 13.2129C17.5203 12.8018 17.2701 12.3853 16.8578 12.2822C14.7977 11.7686 12.7098 13.0181 12.1947 15.0737L11.0083 19.8652C10.9055 20.2764 11.1557 20.6929 11.568 20.7959L14.5521 21.5405C14.9648 21.6431 15.3822 21.3931 15.485 20.9819ZM28.263 15.3125H27.5118C27.0967 15.3125 26.7606 15.6621 26.7606 16.0938V16.875H25.129L22.9327 14.5908C22.412 14.0483 21.7186 13.75 20.9815 13.75C19.7129 13.75 18.6119 14.6436 18.3039 15.9238L17.04 21.1836C16.9771 21.4454 16.9805 21.7196 17.0498 21.9797C17.1191 22.2397 17.2519 22.4767 17.4353 22.6675L21.5021 26.897V30.9375C21.5021 31.8003 22.1749 32.5 23.0045 32.5C23.8342 32.5 24.5069 31.8003 24.5069 30.9375V26.897C24.5069 26.0625 24.1943 25.2778 23.6266 24.6875L21.4284 22.4014C21.4355 22.377 21.4514 22.3579 21.4575 22.3325L22.3914 18.4473L23.4445 19.5425C23.7262 19.8355 24.1083 20.0005 24.5065 20.0005H26.7601V31.7192C26.7601 32.1509 27.0962 32.5005 27.5113 32.5005H28.2625C28.6775 32.5005 29.0137 32.1509 29.0137 31.7192V16.0938C29.0142 15.6621 28.678 15.3125 28.263 15.3125ZM22.2533 12.1875C23.498 12.1875 24.5069 11.1382 24.5069 9.84375C24.5069 8.54932 23.498 7.5 22.2533 7.5C21.0087 7.5 19.9997 8.54932 19.9997 9.84375C19.9997 11.1382 21.0087 12.1875 22.2533 12.1875Z" fill="#000033"/>
</g>
<defs>
<clipPath id="clip0_107_1594">
<rect width="18.0288" height="25" fill="white" transform="translate(10.9856 7.5)"/>
</clipPath>
</defs>
</svg>
