<svg width="29" height="26" viewBox="0 0 29 26" fill="none" xmlns="http://www.w3.org/2000/svg">
<path fill-rule="evenodd" clip-rule="evenodd" d="M12.3604 1.18597C13.4513 0.118902 15.3509 0.296749 16.1723 1.71951L27.7897 21.8415C28.7285 23.4675 27.5551 25.5 25.6775 25.5H2.44266C0.565099 25.5 -0.608375 23.4675 0.330406 21.8415L11.9478 1.71951C12.0652 1.51626 12.2045 1.33841 12.3604 1.18597Z" fill="#E86826"/>
<path d="M15.3732 8.5L15.1558 17.8025H13.2899L13.0634 8.5H15.3732ZM13 20.6558C13 20.3237 13.1087 20.0459 13.3261 19.8225C13.5495 19.593 13.8575 19.4783 14.25 19.4783C14.6365 19.4783 14.9414 19.593 15.1649 19.8225C15.3883 20.0459 15.5 20.3237 15.5 20.6558C15.5 20.9758 15.3883 21.2506 15.1649 21.4801C14.9414 21.7035 14.6365 21.8152 14.25 21.8152C13.8575 21.8152 13.5495 21.7035 13.3261 21.4801C13.1087 21.2506 13 20.9758 13 20.6558Z" fill="white"/>
</svg>
