<svg width="20" height="20" viewBox="0 0 20 20" fill="none" xmlns="http://www.w3.org/2000/svg">
<rect width="20" height="20" rx="10" fill="#000033"/>
<g clip-path="url(#clip0_1173_16489)">
<path d="M8.21366 12.2066C8.02562 12.405 8.02562 12.6529 8.21366 12.8512C8.40169 13.0496 8.63673 13.0496 8.82477 12.8512C9.48289 12.157 10.5641 12.157 11.2222 12.8512C11.4102 13.0496 11.6453 13.0496 11.8333 12.8512C12.0214 12.6529 12.0214 12.405 11.8333 12.2066C10.7991 11.1653 9.20084 11.1653 8.21366 12.2066Z" fill="white"/>
<path d="M6.70939 10.6694C6.52135 10.8678 6.52135 11.1157 6.70939 11.314C6.89742 11.5124 7.13246 11.5124 7.3205 11.314C8.77776 9.77685 11.2222 9.77685 12.6795 11.314C12.8675 11.4628 13.1025 11.4628 13.2906 11.2645C13.4786 11.0661 13.4786 10.8182 13.2906 10.6198C11.4572 8.73553 8.54272 8.73553 6.70939 10.6694Z" fill="white"/>
<path d="M5.25211 9.08265C5.06408 9.28099 5.06408 9.52893 5.25211 9.72727C5.44014 9.92562 5.67519 9.92562 5.86322 9.72727C8.16664 7.29752 11.9273 7.29752 14.2307 9.72727C14.4188 9.92562 14.6538 9.92562 14.8419 9.72727C15.0299 9.52893 15.0299 9.28099 14.8419 9.08265C12.1624 6.30578 7.88459 6.30578 5.25211 9.08265Z" fill="white"/>
</g>
<defs>
<clipPath id="clip0_1173_16489">
<rect width="9.77778" height="6" fill="white" transform="translate(5.11108 7)"/>
</clipPath>
</defs>
</svg>
