<svg width="24" height="24" viewBox="0 0 24 24" xmlns="http://www.w3.org/2000/svg">
<path d="M12 14.6316C11.1071 14.6316 10.3482 14.3246 9.72322 13.7106C9.09821 13.0965 8.78572 12.3509 8.78572 11.4737V5.1579C8.78572 4.28071 9.09821 3.53509 9.72322 2.92105C10.3482 2.30702 11.1071 2 12 2C12.8929 2 13.6518 2.30702 14.2768 2.92105C14.9018 3.53509 15.2143 4.28071 15.2143 5.1579V11.4737C15.2143 12.3509 14.9018 13.0965 14.2768 13.7106C13.6518 14.3246 12.8929 14.6316 12 14.6316ZM10.9286 22V18.7632C9.07143 18.5176 7.53572 17.7018 6.32143 16.3158C5.10714 14.9298 4.5 13.3158 4.5 11.4737H6.64286C6.64286 12.9298 7.16518 14.1711 8.20982 15.1974C9.25447 16.2237 10.5179 16.7369 12 16.7369C13.4821 16.7369 14.7455 16.2237 15.7902 15.1974C16.8348 14.1711 17.3572 12.9298 17.3572 11.4737H19.5C19.5 13.3158 18.8929 14.9298 17.6785 16.3158C16.4643 17.7018 14.9286 18.5176 13.0715 18.7632V22H10.9286ZM12 12.5263C12.3036 12.5263 12.558 12.4255 12.7634 12.2237C12.9688 12.022 13.0715 11.7719 13.0715 11.4737V5.1579C13.0715 4.85965 12.9688 4.60966 12.7634 4.4079C12.558 4.20615 12.3036 4.10527 12 4.10527C11.6964 4.10527 11.442 4.20615 11.2366 4.4079C11.0312 4.60966 10.9286 4.85965 10.9286 5.1579V11.4737C10.9286 11.7719 11.0312 12.022 11.2366 12.2237C11.442 12.4255 11.6964 12.5263 12 12.5263Z" fill="currentColor"/>
</svg>
