<svg width="36" height="48" viewBox="0 0 36 48" fill="none" xmlns="http://www.w3.org/2000/svg">
<path d="M18 30C15.9167 30 14.1458 29.2708 12.6875 27.8125C11.2292 26.3542 10.5 24.5833 10.5 22.5V7.5C10.5 5.41667 11.2292 3.64583 12.6875 2.1875C14.1458 0.729167 15.9167 0 18 0C20.0833 0 21.8542 0.729167 23.3125 2.1875C24.7708 3.64583 25.5 5.41667 25.5 7.5V22.5C25.5 24.5833 24.7708 26.3542 23.3125 27.8125C21.8542 29.2708 20.0833 30 18 30ZM15.5 47.5V39.8125C11.1667 39.2292 7.58333 37.2917 4.75 34C1.91667 30.7083 0.5 26.875 0.5 22.5H5.5C5.5 25.9583 6.71875 28.9062 9.15625 31.3437C11.5938 33.7812 14.5417 35 18 35C21.4583 35 24.4063 33.7812 26.8438 31.3437C29.2813 28.9062 30.5 25.9583 30.5 22.5H35.5C35.5 26.875 34.0833 30.7083 31.25 34C28.4167 37.2917 24.8333 39.2292 20.5 39.8125V47.5H15.5ZM18 25C18.7083 25 19.3021 24.7604 19.7813 24.2812C20.2604 23.8021 20.5 23.2083 20.5 22.5V7.5C20.5 6.79167 20.2604 6.19792 19.7813 5.71875C19.3021 5.23958 18.7083 5 18 5C17.2917 5 16.6979 5.23958 16.2188 5.71875C15.7396 6.19792 15.5 6.79167 15.5 7.5V22.5C15.5 23.2083 15.7396 23.8021 16.2188 24.2812C16.6979 24.7604 17.2917 25 18 25Z" fill="#E86826"/>
</svg>
