<svg width="24" height="24" viewBox="0 0 24 24" fill="none" xmlns="http://www.w3.org/2000/svg">
<path fill-rule="evenodd" clip-rule="evenodd" d="M3.14032 6.65412C3.51771 6.81682 3.93718 6.84883 4.33421 6.74525C4.65862 6.66027 4.95472 6.48837 5.19159 6.24735C5.42847 6.00634 5.59742 5.70506 5.68094 5.37499C5.78275 4.97102 5.75128 4.54422 5.59138 4.16023C5.43146 3.77625 5.15201 3.45641 4.79595 3.24985C4.43989 3.04328 4.02697 2.9614 3.62075 3.01695C3.21452 3.0725 2.83752 3.26237 2.5477 3.55726C2.25787 3.85215 2.07126 4.23565 2.01667 4.64897C1.96207 5.06228 2.04245 5.48251 2.24547 5.84479C2.44849 6.20708 2.76293 6.49141 3.14032 6.65412ZM9.54661 6.25538H20.6714C20.8648 6.25498 21.056 6.21171 21.2313 6.12852C21.4067 6.04532 21.5621 5.92427 21.6867 5.77372C21.8114 5.62317 21.9024 5.44667 21.9533 5.25672C22.004 5.06678 22.0136 4.86789 21.9812 4.6738C21.9159 4.35141 21.7416 4.0625 21.4886 3.85722C21.2358 3.65193 20.9203 3.54321 20.5968 3.55H9.46971C9.27643 3.55074 9.0856 3.59428 8.91051 3.67762C8.73544 3.76097 8.58033 3.88211 8.45591 4.03261C8.33148 4.18311 8.24073 4.35945 8.19002 4.54923C8.1393 4.73901 8.12984 4.93768 8.16223 5.13158C8.22758 5.45396 8.40177 5.74287 8.65467 5.94816C8.90757 6.15344 9.22316 6.26217 9.54661 6.25538Z" fill="#333333"/>
<path fill-rule="evenodd" clip-rule="evenodd" d="M3.14032 20.6541C3.51771 20.8168 3.93718 20.8488 4.33421 20.7452C4.65862 20.6603 4.95472 20.4884 5.19159 20.2474C5.42847 20.0063 5.59742 19.7051 5.68094 19.375C5.78275 18.971 5.75128 18.5442 5.59138 18.1602C5.43146 17.7763 5.15201 17.4564 4.79595 17.2498C4.43989 17.0433 4.02697 16.9614 3.62075 17.0169C3.21452 17.0725 2.83752 17.2624 2.5477 17.5573C2.25787 17.8521 2.07126 18.2356 2.01667 18.649C1.96207 19.0623 2.04245 19.4825 2.24547 19.8448C2.44849 20.2071 2.76293 20.4914 3.14032 20.6541ZM9.54661 20.2554H20.6714C20.8648 20.255 21.056 20.2117 21.2313 20.1285C21.4067 20.0453 21.5621 19.9243 21.6867 19.7737C21.8114 19.6232 21.9024 19.4467 21.9533 19.2567C22.004 19.0668 22.0136 18.8679 21.9812 18.6738C21.9159 18.3514 21.7416 18.0625 21.4886 17.8572C21.2358 17.6519 20.9203 17.5432 20.5968 17.55H9.46971C9.27643 17.5507 9.0856 17.5943 8.91051 17.6776C8.73544 17.761 8.58033 17.8821 8.45591 18.0326C8.33148 18.1831 8.24073 18.3595 8.19002 18.5492C8.1393 18.739 8.12984 18.9377 8.16223 19.1316C8.22758 19.454 8.40177 19.7429 8.65467 19.9482C8.90757 20.1534 9.22316 20.2622 9.54661 20.2554Z" fill="#333333"/>
<path fill-rule="evenodd" clip-rule="evenodd" d="M3.14032 13.6541C3.51771 13.8168 3.93718 13.8488 4.33421 13.7452C4.65862 13.6603 4.95472 13.4884 5.19159 13.2474C5.42847 13.0063 5.59742 12.7051 5.68094 12.375C5.78275 11.971 5.75128 11.5442 5.59138 11.1602C5.43146 10.7763 5.15201 10.4564 4.79595 10.2498C4.43989 10.0433 4.02697 9.9614 3.62075 10.0169C3.21452 10.0725 2.83752 10.2624 2.5477 10.5573C2.25787 10.8521 2.07126 11.2356 2.01667 11.649C1.96207 12.0623 2.04245 12.4825 2.24547 12.8448C2.44849 13.2071 2.76293 13.4914 3.14032 13.6541ZM9.54661 13.2554H20.6714C20.8648 13.255 21.056 13.2117 21.2313 13.1285C21.4067 13.0453 21.5621 12.9243 21.6867 12.7737C21.8114 12.6232 21.9024 12.4467 21.9533 12.2567C22.004 12.0668 22.0136 11.8679 21.9812 11.6738C21.9159 11.3514 21.7416 11.0625 21.4886 10.8572C21.2358 10.6519 20.9203 10.5432 20.5968 10.55H9.46971C9.27643 10.5507 9.0856 10.5943 8.91051 10.6776C8.73544 10.761 8.58033 10.8821 8.45591 11.0326C8.33148 11.1831 8.24073 11.3595 8.19002 11.5492C8.1393 11.739 8.12984 11.9377 8.16223 12.1316C8.22758 12.454 8.40177 12.7429 8.65467 12.9482C8.90757 13.1534 9.22316 13.2622 9.54661 13.2554Z" fill="#333333"/>
</svg>
