<svg width="24" height="24" viewBox="0 0 24 24" fill="none" xmlns="http://www.w3.org/2000/svg">
<path d="M10.4143 10.2938C10.8836 9.98016 11.4354 9.81276 12 9.81276C12.757 9.81288 13.483 10.1137 14.0182 10.649C14.5535 11.1844 14.8542 11.9104 14.8542 12.6675C14.8541 13.232 14.6866 13.7838 14.373 14.2531C14.0592 14.7224 13.6134 15.0881 13.0919 15.304C12.5703 15.52 11.9965 15.5765 11.4428 15.4663C10.8892 15.3561 10.3807 15.0843 9.98157 14.685C9.58241 14.2859 9.31063 13.7773 9.20053 13.2237C9.09044 12.67 9.14699 12.0962 9.36303 11.5747C9.57906 11.0532 9.94492 10.6074 10.4143 10.2938Z" fill="#333333"/>
<path fill-rule="evenodd" clip-rule="evenodd" d="M15.5338 4.41515H20C20.5304 4.41515 21.0391 4.6258 21.4142 5.00086C21.7893 5.37594 22 5.88471 22 6.41515V18C21.9994 18.5303 21.7885 19.0386 21.4136 19.4136C21.0386 19.7885 20.5303 19.9994 20 20H4C3.46982 19.9992 2.96159 19.7882 2.5867 19.4133C2.2118 19.0384 2.00082 18.5302 2 18V6.41515C2.00071 5.88493 2.21167 5.37666 2.58659 5.00174C2.96151 4.62682 3.46978 4.41586 4 4.41515H8.46533L9.16887 3.35959C9.248 3.25427 9.34918 3.16747 9.46531 3.10536C9.5815 3.04325 9.70982 3.00729 9.84129 3H14.1591C14.2903 3.00729 14.4184 3.04321 14.5342 3.10525C14.6501 3.16729 14.7509 3.25398 14.8297 3.35916L15.5338 4.41515ZM4.47727 8.39258C4.66249 8.51643 4.88032 8.58259 5.10313 8.58268C5.25112 8.58274 5.39765 8.55366 5.53439 8.49707C5.67114 8.44047 5.79539 8.35755 5.90007 8.25293C6.00473 8.1483 6.08777 8.02398 6.14442 7.88726C6.20107 7.75054 6.2302 7.60405 6.2302 7.45605C6.2302 7.23324 6.16414 7.01545 6.04036 6.83018C5.91658 6.64491 5.74067 6.50043 5.53483 6.41515C5.32898 6.32986 5.10243 6.30758 4.8839 6.35102C4.66536 6.39445 4.4646 6.50165 4.30702 6.65918C4.14943 6.8167 4.04211 7.01748 3.99859 7.236C3.95506 7.45452 3.97729 7.68105 4.0625 7.88693C4.1477 8.09281 4.29205 8.26872 4.47727 8.39258ZM9.40735 16.5473C10.1748 17.0601 11.077 17.3338 12 17.3338C13.2377 17.3338 14.4246 16.8421 15.2998 15.9669C16.175 15.0918 16.6667 13.9048 16.6667 12.6671C16.6667 11.7441 16.3929 10.8419 15.8802 10.0744C15.3674 9.30702 14.6386 8.7089 13.7859 8.3557C12.9331 8.00249 11.9948 7.91 11.0896 8.09007C10.1843 8.27013 9.35287 8.71466 8.70019 9.3673C8.04755 10.0199 7.60307 10.8514 7.42301 11.7566C7.24295 12.6619 7.33537 13.6002 7.68858 14.4529C8.04179 15.3057 8.6399 16.0346 9.40735 16.5473Z" fill="#333333"/>
</svg>
