<svg width="20" height="20" viewBox="0 0 20 20" fill="none" xmlns="http://www.w3.org/2000/svg">
<path d="M10.0068 20C8.62775 20 7.33192 19.7375 6.11925 19.2125C4.90642 18.6875 3.84583 17.9708 2.9375 17.0625C2.02917 16.1542 1.3125 15.093 0.7875 13.879C0.2625 12.665 0 11.3678 0 9.9875C0 8.60717 0.2625 7.31 0.7875 6.096C1.3125 4.882 2.02917 3.825 2.9375 2.925C3.84583 2.025 4.907 1.3125 6.121 0.7875C7.335 0.2625 8.63217 0 10.0125 0C11.3928 0 12.69 0.2625 13.904 0.7875C15.118 1.3125 16.175 2.025 17.075 2.925C17.975 3.825 18.6875 4.88333 19.2125 6.1C19.7375 7.31667 20 8.61442 20 9.99325C20 11.3723 19.7375 12.6681 19.2125 13.8807C18.6875 15.0936 17.975 16.1527 17.075 17.058C16.175 17.9632 15.1167 18.6798 13.9 19.208C12.6833 19.736 11.3856 20 10.0068 20Z" fill="white"/>
<path d="M16.025 16.0125C14.375 17.6708 12.3708 18.5 10.0125 18.5C7.65417 18.5 5.64583 17.6708 3.9875 16.0125C2.32917 14.3542 1.5 12.35 1.5 10C1.5 7.627 2.32917 5.61708 3.9875 3.97025C5.64583 2.32342 7.65 1.5 10 1.5C12.373 1.5 14.3829 2.325 16.0297 3.975C17.6766 5.625 18.5 7.62917 18.5 9.9875C18.5 12.3458 17.675 14.3542 16.025 16.0125Z" fill="#CCCCD6"/>
<path d="M10.825 15.0027H9.325V10.8527H5V9.35268H9.325V5.00269H10.825V9.35268H15V10.8527H10.825V15.0027Z" fill="white"/>
</svg>
